<mxfile host="www.draw.io" modified="2020-01-20T14:28:23.808Z" agent="Mozilla/5.0 (Windows NT 10.0; Win64; x64) AppleWebKit/537.36 (KHTML, like Gecko) Chrome/79.0.3945.117 Safari/537.36" etag="T-g8hOEM07cYygJHoAV6" version="12.5.5" type="github">
  <diagram id="6a731a19-8d31-9384-78a2-239565b7b9f0" name="Page-1">
    <mxGraphModel dx="4764" dy="1366" grid="1" gridSize="10" guides="1" tooltips="1" connect="1" arrows="1" fold="1" page="1" pageScale="1" pageWidth="1169" pageHeight="827" background="#ffffff" math="0" shadow="0">
      <root>
        <mxCell id="0"/>
        <mxCell id="1" parent="0"/>
        <mxCell id="voT6KS4KQfKfTc6dw4Qr-1668" value="" style="edgeStyle=none;endArrow=none;strokeWidth=3;strokeColor=#F5AF58;html=1;" edge="1" parent="1" target="voT6KS4KQfKfTc6dw4Qr-1667">
          <mxGeometry x="40.19" y="2010" width="100" height="100" as="geometry">
            <mxPoint x="360" y="1880" as="sourcePoint"/>
            <mxPoint x="140.18999999999997" y="2010" as="targetPoint"/>
          </mxGeometry>
        </mxCell>
        <mxCell id="voT6KS4KQfKfTc6dw4Qr-1664" value="" style="edgeStyle=none;endArrow=none;strokeWidth=3;strokeColor=#F5AF58;html=1;" edge="1" parent="1" target="voT6KS4KQfKfTc6dw4Qr-1663">
          <mxGeometry x="21.25" y="1870" width="100" height="100" as="geometry">
            <mxPoint x="380" y="1819" as="sourcePoint"/>
            <mxPoint x="121.24999999999997" y="1870" as="targetPoint"/>
          </mxGeometry>
        </mxCell>
        <mxCell id="voT6KS4KQfKfTc6dw4Qr-1625" value="" style="edgeStyle=none;endArrow=none;strokeWidth=3;strokeColor=#F5AF58;html=1;entryX=0.75;entryY=0;entryDx=0;entryDy=0;" edge="1" parent="1" target="voT6KS4KQfKfTc6dw4Qr-1624" source="voT6KS4KQfKfTc6dw4Qr-1620">
          <mxGeometry x="-1270.52" y="775.39" width="100" height="100" as="geometry">
            <mxPoint x="-290" y="1347" as="sourcePoint"/>
            <mxPoint x="-1170.52" y="775.39" as="targetPoint"/>
          </mxGeometry>
        </mxCell>
        <mxCell id="voT6KS4KQfKfTc6dw4Qr-1619" style="endArrow=none;strokeWidth=6;strokeColor=#f08705;html=1;exitX=0.077;exitY=0.769;exitDx=0;exitDy=0;exitPerimeter=0;" edge="1" parent="1" target="voT6KS4KQfKfTc6dw4Qr-1620" source="61DMd2a8S4PAV4XTqUyv-1561">
          <mxGeometry relative="1" as="geometry">
            <mxPoint x="-560.685" y="1480" as="sourcePoint"/>
          </mxGeometry>
        </mxCell>
        <mxCell id="voT6KS4KQfKfTc6dw4Qr-1615" value="" style="edgeStyle=none;endArrow=none;strokeWidth=3;strokeColor=#001DBC;html=1;fillColor=#0050ef;entryX=0;entryY=0.25;entryDx=0;entryDy=0;exitX=0.87;exitY=0.767;exitDx=0;exitDy=0;exitPerimeter=0;" edge="1" parent="1" source="voT6KS4KQfKfTc6dw4Qr-1605" target="voT6KS4KQfKfTc6dw4Qr-1612">
          <mxGeometry x="-1748.46" y="1474.22" width="100" height="100" as="geometry">
            <mxPoint x="99.78999999998814" y="1451.75" as="sourcePoint"/>
            <mxPoint x="171.9699999999998" y="1452.5" as="targetPoint"/>
          </mxGeometry>
        </mxCell>
        <mxCell id="voT6KS4KQfKfTc6dw4Qr-1608" style="endArrow=none;strokeWidth=6;strokeColor=#001DBC;html=1;fillColor=#0050ef;exitX=0.5;exitY=1;exitDx=0;exitDy=0;entryX=0.473;entryY=0.07;entryDx=0;entryDy=0;entryPerimeter=0;" edge="1" parent="1" source="61DMd2a8S4PAV4XTqUyv-1561" target="voT6KS4KQfKfTc6dw4Qr-1605">
          <mxGeometry relative="1" as="geometry">
            <mxPoint x="141.88450000000034" y="1377.9301600000001" as="sourcePoint"/>
            <mxPoint x="-214.36084678850943" y="1480.0016705110029" as="targetPoint"/>
          </mxGeometry>
        </mxCell>
        <mxCell id="voT6KS4KQfKfTc6dw4Qr-1600" style="endArrow=none;strokeWidth=6;strokeColor=#736ca8;html=1;entryX=0.762;entryY=0.895;entryDx=0;entryDy=0;entryPerimeter=0;" edge="1" parent="1" source="voT6KS4KQfKfTc6dw4Qr-1597" target="61DMd2a8S4PAV4XTqUyv-1561">
          <mxGeometry relative="1" as="geometry">
            <mxPoint x="141.88424999999964" y="1446.6399999999999" as="sourcePoint"/>
            <mxPoint x="-61.24359312880685" y="1273.3664068711932" as="targetPoint"/>
          </mxGeometry>
        </mxCell>
        <mxCell id="voT6KS4KQfKfTc6dw4Qr-1587" style="endArrow=none;strokeWidth=6;strokeColor=#1699D3;html=1;entryX=0;entryY=0.5;entryDx=0;entryDy=0;exitX=0.995;exitY=0.607;exitDx=0;exitDy=0;exitPerimeter=0;" edge="1" parent="1" target="voT6KS4KQfKfTc6dw4Qr-1586" source="61DMd2a8S4PAV4XTqUyv-1561">
          <mxGeometry relative="1" as="geometry">
            <mxPoint x="1401.68" y="1950" as="targetPoint"/>
            <mxPoint x="294.37625" y="1598.7092200000002" as="sourcePoint"/>
          </mxGeometry>
        </mxCell>
        <mxCell id="voT6KS4KQfKfTc6dw4Qr-1576" style="endArrow=none;strokeWidth=6;strokeColor=#1699D3;html=1;entryX=0.032;entryY=0.693;entryDx=0;entryDy=0;entryPerimeter=0;exitX=0.935;exitY=0.251;exitDx=0;exitDy=0;exitPerimeter=0;" edge="1" parent="1" target="voT6KS4KQfKfTc6dw4Qr-1575" source="61DMd2a8S4PAV4XTqUyv-1561">
          <mxGeometry relative="1" as="geometry">
            <mxPoint x="1239.44" y="1530" as="targetPoint"/>
            <mxPoint x="240.0013926283395" y="1342.1573203035541" as="sourcePoint"/>
          </mxGeometry>
        </mxCell>
        <mxCell id="voT6KS4KQfKfTc6dw4Qr-1567" style="endArrow=none;strokeWidth=6;strokeColor=#f08705;html=1;exitX=0.5;exitY=0;exitDx=0;exitDy=0;" edge="1" parent="1" target="voT6KS4KQfKfTc6dw4Qr-1565" source="61DMd2a8S4PAV4XTqUyv-1561">
          <mxGeometry relative="1" as="geometry">
            <mxPoint x="368.51628811042474" y="1096.1821946652722" as="sourcePoint"/>
          </mxGeometry>
        </mxCell>
        <mxCell id="1350" value="Deel- processen SLM" style="ellipse;whiteSpace=wrap;html=1;shadow=0;fontFamily=Helvetica;fontSize=20;fontColor=#FFFFFF;align=center;strokeWidth=3;fillColor=#1699D3;strokeColor=none;" parent="1" vertex="1">
          <mxGeometry x="-757.8400000000001" y="190" width="124.71" height="120" as="geometry"/>
        </mxCell>
        <mxCell id="1351" value="ITIL V3&lt;br&gt;Levenscyclus" style="ellipse;whiteSpace=wrap;html=1;shadow=0;fontFamily=Helvetica;fontSize=20;fontColor=#FFFFFF;align=center;strokeWidth=3;fillColor=#F08705;strokeColor=none;gradientColor=none;" parent="1" vertex="1">
          <mxGeometry x="-388.21000000000004" y="281.5" width="145.5" height="137" as="geometry"/>
        </mxCell>
        <mxCell id="1352" value="ISM Model" style="ellipse;whiteSpace=wrap;html=1;shadow=0;fontFamily=Helvetica;fontSize=20;fontColor=#FFFFFF;align=center;strokeWidth=3;fillColor=#E85642;strokeColor=none;" parent="1" vertex="1">
          <mxGeometry x="-78.11999999999995" y="120" width="120" height="120" as="geometry"/>
        </mxCell>
        <mxCell id="1353" value="SLA" style="ellipse;whiteSpace=wrap;html=1;shadow=0;fontFamily=Helvetica;fontSize=20;fontColor=#FFFFFF;align=center;strokeWidth=3;fillColor=#1699D3;strokeColor=none;" parent="1" vertex="1">
          <mxGeometry x="441" y="82.72000000000003" width="120" height="120" as="geometry"/>
        </mxCell>
        <mxCell id="1354" value="SLR" style="ellipse;whiteSpace=wrap;html=1;shadow=0;fontFamily=Helvetica;fontSize=20;fontColor=#FFFFFF;align=center;strokeWidth=3;fillColor=#736ca8;strokeColor=none;" parent="1" vertex="1">
          <mxGeometry x="650.0000000000001" y="387.5" width="120" height="120" as="geometry"/>
        </mxCell>
        <mxCell id="1355" value="SMART" style="ellipse;whiteSpace=wrap;html=1;shadow=0;fontFamily=Helvetica;fontSize=20;fontColor=#FFFFFF;align=center;strokeWidth=3;fillColor=#F08705;strokeColor=none;" parent="1" vertex="1">
          <mxGeometry x="493.25" y="587.5" width="120" height="120" as="geometry"/>
        </mxCell>
        <mxCell id="1356" value="Service- catalogus" style="ellipse;whiteSpace=wrap;html=1;shadow=0;fontFamily=Helvetica;fontSize=20;fontColor=#FFFFFF;align=center;strokeWidth=3;fillColor=#E85642;strokeColor=none;" parent="1" vertex="1">
          <mxGeometry x="-41.71000000000005" y="668.28" width="131.5" height="131.5" as="geometry"/>
        </mxCell>
        <mxCell id="1357" value="Servicestrategie" style="rounded=1;fillColor=#f5af58;strokeColor=none;strokeWidth=3;shadow=0;html=1;fontColor=#FFFFFF;" parent="1" vertex="1">
          <mxGeometry x="-508.21000000000004" y="275" width="120" height="40" as="geometry"/>
        </mxCell>
        <mxCell id="1358" value="&lt;b&gt;Aansturen van de IT dienstverlening&lt;/b&gt;&lt;br&gt;&lt;table border=&quot;0&quot; cellpadding=&quot;0&quot; cellspacing=&quot;0&quot; width=&quot;65&quot; style=&quot;border-collapse: collapse ; width: 49pt&quot;&gt; &lt;colgroup&gt;&lt;col width=&quot;65&quot; style=&quot;width: 49pt&quot;&gt;&lt;/colgroup&gt; &lt;tbody&gt;&lt;tr style=&quot;height: 14.5pt&quot;&gt;  &lt;td height=&quot;19&quot; class=&quot;xl76&quot; width=&quot;65&quot; style=&quot;text-align: left ; height: 14.5pt ; width: 49pt&quot;&gt;Het verzamelen van deelprestaties.&lt;/td&gt; &lt;/tr&gt; &lt;tr style=&quot;height: 14.5pt&quot;&gt;  &lt;td height=&quot;19&quot; class=&quot;xl76&quot; style=&quot;text-align: left ; height: 14.5pt&quot;&gt;Samenstellen van servicerapportages.&lt;/td&gt; &lt;/tr&gt; &lt;tr style=&quot;height: 14.5pt&quot;&gt;  &lt;td height=&quot;19&quot; class=&quot;xl76&quot; style=&quot;text-align: left ; height: 14.5pt&quot;&gt;Evalueren van de IT dienstverlening.&lt;/td&gt; &lt;/tr&gt; &lt;tr style=&quot;height: 14.5pt&quot;&gt;  &lt;td height=&quot;19&quot; class=&quot;xl76&quot; style=&quot;text-align: left ; height: 14.5pt&quot;&gt;Bijsturen van de IT dienstverlening.&lt;/td&gt; &lt;/tr&gt; &lt;tr style=&quot;height: 14.5pt&quot;&gt;  &lt;td height=&quot;19&quot; class=&quot;xl76&quot; style=&quot;text-align: left ; height: 14.5pt&quot;&gt;Het afsluiten.&lt;/td&gt; &lt;/tr&gt;&lt;/tbody&gt;&lt;/table&gt;" style="rounded=1;fillColor=#64BBE2;strokeColor=none;strokeWidth=3;shadow=0;html=1;fontColor=#FFFFFF;" parent="1" vertex="1">
          <mxGeometry x="-830.39" y="40" width="269.8" height="128.5" as="geometry"/>
        </mxCell>
        <mxCell id="1359" style="endArrow=none;strokeWidth=6;strokeColor=#1699D3;html=1;" parent="1" source="1515" target="1350" edge="1">
          <mxGeometry relative="1" as="geometry"/>
        </mxCell>
        <mxCell id="1360" style="endArrow=none;strokeWidth=6;strokeColor=#f08705;html=1;" parent="1" source="1515" target="1351" edge="1">
          <mxGeometry relative="1" as="geometry"/>
        </mxCell>
        <mxCell id="1361" style="endArrow=none;strokeWidth=6;strokeColor=#E85642;html=1;" parent="1" source="1515" target="1352" edge="1">
          <mxGeometry relative="1" as="geometry"/>
        </mxCell>
        <mxCell id="1362" style="endArrow=none;strokeWidth=6;strokeColor=#1699D3;html=1;entryX=0.256;entryY=0.924;entryDx=0;entryDy=0;entryPerimeter=0;" parent="1" source="1515" target="1353" edge="1">
          <mxGeometry relative="1" as="geometry">
            <mxPoint x="980" y="710" as="targetPoint"/>
          </mxGeometry>
        </mxCell>
        <mxCell id="61DMd2a8S4PAV4XTqUyv-1545" value="&lt;span style=&quot;text-align: left ; background-color: rgb(248 , 249 , 250)&quot;&gt;De student kan (als startbekwame professional) beoordelen of de &lt;br&gt;SLA documentatie compleet is en of de inhoud (op globaal niveau) juist is.&lt;/span&gt;" style="text;html=1;align=center;verticalAlign=middle;resizable=0;points=[];labelBackgroundColor=#ffffff;rotation=326;" parent="1362" vertex="1" connectable="0">
          <mxGeometry x="-0.1632" y="1" relative="1" as="geometry">
            <mxPoint x="-49.42" y="8" as="offset"/>
          </mxGeometry>
        </mxCell>
        <mxCell id="1363" style="endArrow=none;strokeWidth=6;strokeColor=#736CA8;html=1;" parent="1" source="1515" target="1516" edge="1">
          <mxGeometry relative="1" as="geometry"/>
        </mxCell>
        <mxCell id="1364" style="endArrow=none;strokeWidth=6;strokeColor=#736ca8;html=1;exitX=0.997;exitY=0.403;exitDx=0;exitDy=0;exitPerimeter=0;" parent="1" source="1515" edge="1">
          <mxGeometry relative="1" as="geometry">
            <mxPoint x="380" y="470" as="sourcePoint"/>
            <mxPoint x="651" y="448" as="targetPoint"/>
          </mxGeometry>
        </mxCell>
        <mxCell id="1365" value="" style="edgeStyle=none;endArrow=none;strokeWidth=6;strokeColor=#F08705;html=1;" parent="1" source="1515" target="1355" edge="1">
          <mxGeometry x="-927.21" y="170" width="100" height="100" as="geometry">
            <mxPoint x="-927.21" y="270" as="sourcePoint"/>
            <mxPoint x="-827.21" y="170" as="targetPoint"/>
          </mxGeometry>
        </mxCell>
        <mxCell id="1366" value="" style="edgeStyle=none;endArrow=none;strokeWidth=6;strokeColor=#E85642;html=1;" parent="1" source="1515" target="1356" edge="1">
          <mxGeometry x="-927.21" y="170" width="100" height="100" as="geometry">
            <mxPoint x="-927.21" y="270" as="sourcePoint"/>
            <mxPoint x="-827.21" y="170" as="targetPoint"/>
          </mxGeometry>
        </mxCell>
        <mxCell id="1367" value="&lt;b&gt;Maken en onderhouden van serviceafspraken&lt;/b&gt;&lt;br&gt;&lt;table border=&quot;0&quot; cellpadding=&quot;0&quot; cellspacing=&quot;0&quot; width=&quot;65&quot; style=&quot;border-collapse: collapse ; width: 49pt&quot;&gt; &lt;colgroup&gt;&lt;col width=&quot;65&quot; style=&quot;width: 49pt&quot;&gt;&lt;/colgroup&gt; &lt;tbody&gt;&lt;tr style=&quot;height: 14.5pt&quot;&gt;  &lt;td height=&quot;19&quot; class=&quot;xl76&quot; width=&quot;65&quot; style=&quot;text-align: left ; height: 14.5pt ; width: 49pt&quot;&gt;Verzamelen van eisen en wensen.&lt;/td&gt; &lt;/tr&gt; &lt;tr style=&quot;height: 14.5pt&quot;&gt;  &lt;td height=&quot;19&quot; class=&quot;xl76&quot; style=&quot;text-align: left ; height: 14.5pt&quot;&gt;Specificeren van gewenste service.&lt;/td&gt; &lt;/tr&gt; &lt;tr style=&quot;height: 14.5pt&quot;&gt;  &lt;td height=&quot;19&quot; class=&quot;xl76&quot; style=&quot;text-align: left ; height: 14.5pt&quot;&gt;Verifiëren van impact en haalbaarheid.&lt;/td&gt; &lt;/tr&gt; &lt;tr style=&quot;height: 14.5pt&quot;&gt;  &lt;td height=&quot;19&quot; class=&quot;xl76&quot; style=&quot;text-align: left ; height: 14.5pt&quot;&gt;Beslissen over offerte.&lt;/td&gt; &lt;/tr&gt; &lt;tr style=&quot;height: 14.5pt&quot;&gt;  &lt;td height=&quot;19&quot; class=&quot;xl76&quot; style=&quot;text-align: left ; height: 14.5pt&quot;&gt;Onderhandelen&lt;/td&gt; &lt;/tr&gt; &lt;tr style=&quot;height: 14.5pt&quot;&gt;  &lt;td height=&quot;19&quot; class=&quot;xl76&quot; style=&quot;text-align: left ; height: 14.5pt&quot;&gt;Doorvoeren serviceafspraken.&lt;/td&gt; &lt;/tr&gt; &lt;tr style=&quot;height: 14.5pt&quot;&gt;  &lt;td height=&quot;19&quot; class=&quot;xl76&quot; style=&quot;text-align: left ; height: 14.5pt&quot;&gt;Toetsen aanpassing servicecatalogus.&lt;/td&gt; &lt;/tr&gt; &lt;tr style=&quot;height: 14.5pt&quot;&gt;  &lt;td height=&quot;19&quot; class=&quot;xl76&quot; style=&quot;text-align: left ; height: 14.5pt&quot;&gt;Afsluiten.&lt;/td&gt; &lt;/tr&gt;&lt;/tbody&gt;&lt;/table&gt;" style="rounded=1;fillColor=#64BBE2;strokeColor=none;strokeWidth=3;shadow=0;html=1;fontColor=#FFFFFF;" parent="1" vertex="1">
          <mxGeometry x="-1146.75" y="19.5" width="306.21" height="190.5" as="geometry"/>
        </mxCell>
        <mxCell id="1368" value="&lt;b&gt;Onderhoud van de servicecatalogus&lt;/b&gt;&lt;br&gt;&lt;table border=&quot;0&quot; cellpadding=&quot;0&quot; cellspacing=&quot;0&quot; width=&quot;65&quot; style=&quot;border-collapse: collapse ; width: 49pt&quot;&gt; &lt;colgroup&gt;&lt;col width=&quot;65&quot; style=&quot;width: 49pt&quot;&gt;&lt;/colgroup&gt; &lt;tbody&gt;&lt;tr style=&quot;height: 14.5pt&quot;&gt;  &lt;td height=&quot;19&quot; class=&quot;xl76&quot; width=&quot;65&quot; style=&quot;text-align: left ; height: 14.5pt ; width: 49pt&quot;&gt;Inventarisatie van servicewensen.&lt;/td&gt; &lt;/tr&gt; &lt;tr style=&quot;height: 14.5pt&quot;&gt;  &lt;td height=&quot;19&quot; class=&quot;xl76&quot; style=&quot;text-align: left ; height: 14.5pt&quot;&gt;Beslissen aanpassing van de servicecatalogus.&lt;/td&gt; &lt;/tr&gt; &lt;tr style=&quot;height: 14.5pt&quot;&gt;  &lt;td height=&quot;19&quot; class=&quot;xl76&quot; style=&quot;text-align: left ; height: 14.5pt&quot;&gt;Registratie standaardservices.&lt;/td&gt; &lt;/tr&gt; &lt;tr style=&quot;height: 14.5pt&quot;&gt;  &lt;td height=&quot;19&quot; class=&quot;xl76&quot; style=&quot;text-align: left ; height: 14.5pt&quot;&gt;Afsluiten.&lt;/td&gt; &lt;/tr&gt;&lt;/tbody&gt;&lt;/table&gt;" style="rounded=1;fillColor=#64BBE2;strokeColor=none;strokeWidth=3;shadow=0;html=1;fontColor=#FFFFFF;" parent="1" vertex="1">
          <mxGeometry x="-534.54" y="48" width="274.54" height="112" as="geometry"/>
        </mxCell>
        <mxCell id="1378" value="" style="edgeStyle=none;endArrow=none;strokeWidth=3;strokeColor=#64BBE2;html=1;" parent="1" source="1350" target="1367" edge="1">
          <mxGeometry x="-1329.71" width="100" height="100" as="geometry">
            <mxPoint x="-1329.71" y="100" as="sourcePoint"/>
            <mxPoint x="-1229.71" as="targetPoint"/>
          </mxGeometry>
        </mxCell>
        <mxCell id="1379" value="" style="edgeStyle=none;endArrow=none;strokeWidth=3;strokeColor=#64BBE2;html=1;" parent="1" source="1350" target="1358" edge="1">
          <mxGeometry x="-1329.71" width="100" height="100" as="geometry">
            <mxPoint x="-1329.71" y="100" as="sourcePoint"/>
            <mxPoint x="-1229.71" as="targetPoint"/>
          </mxGeometry>
        </mxCell>
        <mxCell id="1380" value="" style="edgeStyle=none;endArrow=none;strokeWidth=3;strokeColor=#64BBE2;html=1;" parent="1" source="1350" target="1368" edge="1">
          <mxGeometry x="-1329.71" width="100" height="100" as="geometry">
            <mxPoint x="-1329.71" y="100" as="sourcePoint"/>
            <mxPoint x="-1229.71" as="targetPoint"/>
          </mxGeometry>
        </mxCell>
        <mxCell id="1388" value="Service-ontwerp" style="rounded=1;fillColor=#f5af58;strokeColor=none;strokeWidth=3;shadow=0;html=1;fontColor=#FFFFFF;" parent="1" vertex="1">
          <mxGeometry x="-481.71000000000004" y="195" width="120" height="40" as="geometry"/>
        </mxCell>
        <mxCell id="1389" value="Servicetransitie" style="rounded=1;fillColor=#f5af58;strokeColor=none;strokeWidth=3;shadow=0;html=1;fontColor=#FFFFFF;" parent="1" vertex="1">
          <mxGeometry x="-331.71000000000004" y="180" width="120" height="40" as="geometry"/>
        </mxCell>
        <mxCell id="1390" value="Serviceproductie" style="rounded=1;fillColor=#f5af58;strokeColor=none;strokeWidth=3;shadow=0;html=1;fontColor=#FFFFFF;" parent="1" vertex="1">
          <mxGeometry x="-261.71000000000004" y="235" width="120" height="40" as="geometry"/>
        </mxCell>
        <mxCell id="1391" value="Continue serviceverbetering" style="rounded=1;fillColor=#f5af58;strokeColor=none;strokeWidth=3;shadow=0;html=1;fontColor=#FFFFFF;" parent="1" vertex="1">
          <mxGeometry x="-231.71000000000004" y="308.5" width="173.5" height="40" as="geometry"/>
        </mxCell>
        <mxCell id="1399" value="" style="edgeStyle=none;endArrow=none;strokeWidth=3;strokeColor=#F5AF58;html=1;" parent="1" source="1351" target="1357" edge="1">
          <mxGeometry x="-1104.71" y="-35" width="100" height="100" as="geometry">
            <mxPoint x="-1104.71" y="65" as="sourcePoint"/>
            <mxPoint x="-1004.71" y="-35" as="targetPoint"/>
          </mxGeometry>
        </mxCell>
        <mxCell id="1400" value="" style="edgeStyle=none;endArrow=none;strokeWidth=3;strokeColor=#F5AF58;html=1;" parent="1" source="1351" target="1388" edge="1">
          <mxGeometry x="-1104.71" y="-35" width="100" height="100" as="geometry">
            <mxPoint x="-1104.71" y="65" as="sourcePoint"/>
            <mxPoint x="-1004.71" y="-35" as="targetPoint"/>
          </mxGeometry>
        </mxCell>
        <mxCell id="1401" value="" style="edgeStyle=none;endArrow=none;strokeWidth=3;strokeColor=#F5AF58;html=1;" parent="1" source="1351" target="1389" edge="1">
          <mxGeometry x="-1104.71" y="-35" width="100" height="100" as="geometry">
            <mxPoint x="-1104.71" y="65" as="sourcePoint"/>
            <mxPoint x="-1004.71" y="-35" as="targetPoint"/>
          </mxGeometry>
        </mxCell>
        <mxCell id="1402" value="" style="edgeStyle=none;endArrow=none;strokeWidth=3;strokeColor=#F5AF58;html=1;" parent="1" source="1351" target="1390" edge="1">
          <mxGeometry x="-1104.71" y="-35" width="100" height="100" as="geometry">
            <mxPoint x="-1104.71" y="65" as="sourcePoint"/>
            <mxPoint x="-1004.71" y="-35" as="targetPoint"/>
          </mxGeometry>
        </mxCell>
        <mxCell id="1403" value="" style="edgeStyle=none;endArrow=none;strokeWidth=3;strokeColor=#F5AF58;html=1;" parent="1" source="1351" target="1391" edge="1">
          <mxGeometry x="-1104.71" y="-35" width="100" height="100" as="geometry">
            <mxPoint x="-1104.71" y="65" as="sourcePoint"/>
            <mxPoint x="-1004.71" y="-35" as="targetPoint"/>
          </mxGeometry>
        </mxCell>
        <mxCell id="1413" value="Service Level Management" style="rounded=1;fillColor=#f08e81;strokeColor=none;strokeWidth=3;shadow=0;html=1;fontColor=#FFFFFF;" parent="1" vertex="1">
          <mxGeometry x="-160.00000000000006" y="61.5" width="181" height="40" as="geometry"/>
        </mxCell>
        <mxCell id="1414" value="Quality Management" style="rounded=1;fillColor=#f08e81;strokeColor=none;strokeWidth=3;shadow=0;html=1;fontColor=#FFFFFF;" parent="1" vertex="1">
          <mxGeometry x="41.88000000000005" y="20" width="140" height="40" as="geometry"/>
        </mxCell>
        <mxCell id="1415" value="Change Management" style="rounded=1;fillColor=#f08e81;strokeColor=none;strokeWidth=3;shadow=0;html=1;fontColor=#FFFFFF;" parent="1" vertex="1">
          <mxGeometry x="181.88000000000005" y="70" width="154" height="40" as="geometry"/>
        </mxCell>
        <mxCell id="1416" value="Incident Management" style="rounded=1;fillColor=#f08e81;strokeColor=none;strokeWidth=3;shadow=0;html=1;fontColor=#FFFFFF;" parent="1" vertex="1">
          <mxGeometry x="181.88000000000005" y="151.5" width="149" height="40" as="geometry"/>
        </mxCell>
        <mxCell id="1417" value="Configuration Management" style="rounded=1;fillColor=#f08e81;strokeColor=none;strokeWidth=3;shadow=0;html=1;fontColor=#FFFFFF;" parent="1" vertex="1">
          <mxGeometry x="141.88000000000005" y="230" width="174" height="40" as="geometry"/>
        </mxCell>
        <mxCell id="1418" value="Operations Management" style="rounded=1;fillColor=#f08e81;strokeColor=none;strokeWidth=3;shadow=0;html=1;fontColor=#FFFFFF;" parent="1" vertex="1">
          <mxGeometry x="7.540000000000049" y="300" width="169" height="40" as="geometry"/>
        </mxCell>
        <mxCell id="1424" value="" style="edgeStyle=none;endArrow=none;strokeWidth=3;strokeColor=#F08E81;html=1;" parent="1" source="1352" target="1413" edge="1">
          <mxGeometry x="-1077.21" y="50" width="100" height="100" as="geometry">
            <mxPoint x="-1077.21" y="150" as="sourcePoint"/>
            <mxPoint x="-977.21" y="50" as="targetPoint"/>
          </mxGeometry>
        </mxCell>
        <mxCell id="1425" value="" style="edgeStyle=none;endArrow=none;strokeWidth=3;strokeColor=#F08E81;html=1;" parent="1" source="1352" target="1414" edge="1">
          <mxGeometry x="-1077.21" y="50" width="100" height="100" as="geometry">
            <mxPoint x="-1077.21" y="150" as="sourcePoint"/>
            <mxPoint x="-977.21" y="50" as="targetPoint"/>
          </mxGeometry>
        </mxCell>
        <mxCell id="1426" value="" style="edgeStyle=none;endArrow=none;strokeWidth=3;strokeColor=#F08E81;html=1;" parent="1" source="1352" target="1415" edge="1">
          <mxGeometry x="-1077.21" y="50" width="100" height="100" as="geometry">
            <mxPoint x="-1077.21" y="150" as="sourcePoint"/>
            <mxPoint x="-977.21" y="50" as="targetPoint"/>
          </mxGeometry>
        </mxCell>
        <mxCell id="1427" value="" style="edgeStyle=none;endArrow=none;strokeWidth=3;strokeColor=#F08E81;html=1;" parent="1" source="1352" target="1416" edge="1">
          <mxGeometry x="-1077.21" y="50" width="100" height="100" as="geometry">
            <mxPoint x="-1077.21" y="150" as="sourcePoint"/>
            <mxPoint x="-977.21" y="50" as="targetPoint"/>
          </mxGeometry>
        </mxCell>
        <mxCell id="1428" value="" style="edgeStyle=none;endArrow=none;strokeWidth=3;strokeColor=#F08E81;html=1;" parent="1" source="1352" target="1417" edge="1">
          <mxGeometry x="-1077.21" y="50" width="100" height="100" as="geometry">
            <mxPoint x="-1077.21" y="150" as="sourcePoint"/>
            <mxPoint x="-977.21" y="50" as="targetPoint"/>
          </mxGeometry>
        </mxCell>
        <mxCell id="1429" value="" style="edgeStyle=none;endArrow=none;strokeWidth=3;strokeColor=#F08E81;html=1;" parent="1" source="1352" target="1418" edge="1">
          <mxGeometry x="-1077.21" y="50" width="100" height="100" as="geometry">
            <mxPoint x="-1077.21" y="150" as="sourcePoint"/>
            <mxPoint x="-977.21" y="50" as="targetPoint"/>
          </mxGeometry>
        </mxCell>
        <mxCell id="1435" value="Service gebaseerde SLA" style="rounded=1;fillColor=#64BBE2;strokeColor=none;strokeWidth=3;shadow=0;html=1;fontColor=#FFFFFF;" parent="1" vertex="1">
          <mxGeometry x="390" y="20" width="171" height="40" as="geometry"/>
        </mxCell>
        <mxCell id="1436" value="Klant gebaseerde SLA" style="rounded=1;fillColor=#64BBE2;strokeColor=none;strokeWidth=3;shadow=0;html=1;fontColor=#FFFFFF;" parent="1" vertex="1">
          <mxGeometry x="601" y="35" width="161" height="40" as="geometry"/>
        </mxCell>
        <mxCell id="1437" value="Multilevel SLA" style="rounded=1;fillColor=#64BBE2;strokeColor=none;strokeWidth=3;shadow=0;html=1;fontColor=#FFFFFF;" parent="1" vertex="1">
          <mxGeometry x="670" y="98.5" width="120" height="40" as="geometry"/>
        </mxCell>
        <mxCell id="1439" value="underpinning contract (UC)" style="rounded=1;fillColor=#64BBE2;strokeColor=none;strokeWidth=3;shadow=0;html=1;fontColor=#FFFFFF;" parent="1" vertex="1">
          <mxGeometry x="490" y="225.44000000000005" width="189" height="40" as="geometry"/>
        </mxCell>
        <mxCell id="1440" value="operationeel level agreement (OLA)" style="rounded=1;fillColor=#64BBE2;strokeColor=none;strokeWidth=3;shadow=0;html=1;fontColor=#FFFFFF;" parent="1" vertex="1">
          <mxGeometry x="720" y="170" width="250" height="40" as="geometry"/>
        </mxCell>
        <mxCell id="1446" value="" style="edgeStyle=none;endArrow=none;strokeWidth=3;strokeColor=#64BBE2;html=1;" parent="1" source="1353" target="1435" edge="1">
          <mxGeometry x="-1132.21" y="140" width="100" height="100" as="geometry">
            <mxPoint x="-1132.21" y="240" as="sourcePoint"/>
            <mxPoint x="-1032.21" y="140" as="targetPoint"/>
          </mxGeometry>
        </mxCell>
        <mxCell id="1447" value="" style="edgeStyle=none;endArrow=none;strokeWidth=3;strokeColor=#64BBE2;html=1;" parent="1" source="1353" target="1436" edge="1">
          <mxGeometry x="-1132.21" y="140" width="100" height="100" as="geometry">
            <mxPoint x="-1132.21" y="240" as="sourcePoint"/>
            <mxPoint x="-1032.21" y="140" as="targetPoint"/>
          </mxGeometry>
        </mxCell>
        <mxCell id="1448" value="" style="edgeStyle=none;endArrow=none;strokeWidth=3;strokeColor=#64BBE2;html=1;" parent="1" source="1353" target="1437" edge="1">
          <mxGeometry x="-1132.21" y="140" width="100" height="100" as="geometry">
            <mxPoint x="-1132.21" y="240" as="sourcePoint"/>
            <mxPoint x="-1032.21" y="140" as="targetPoint"/>
          </mxGeometry>
        </mxCell>
        <mxCell id="1450" value="" style="edgeStyle=none;endArrow=none;strokeWidth=3;strokeColor=#64BBE2;html=1;" parent="1" source="1353" target="1439" edge="1">
          <mxGeometry x="-1132.21" y="140" width="100" height="100" as="geometry">
            <mxPoint x="-1132.21" y="240" as="sourcePoint"/>
            <mxPoint x="-1032.21" y="140" as="targetPoint"/>
          </mxGeometry>
        </mxCell>
        <mxCell id="1451" value="" style="edgeStyle=none;endArrow=none;strokeWidth=3;strokeColor=#64BBE2;html=1;" parent="1" source="1353" target="1440" edge="1">
          <mxGeometry x="-1132.21" y="140" width="100" height="100" as="geometry">
            <mxPoint x="-1132.21" y="240" as="sourcePoint"/>
            <mxPoint x="-1032.21" y="140" as="targetPoint"/>
          </mxGeometry>
        </mxCell>
        <mxCell id="1457" value="Beschrijving van de service" style="rounded=1;fillColor=#a29dc5;strokeColor=none;strokeWidth=3;shadow=0;html=1;fontColor=#FFFFFF;" parent="1" vertex="1">
          <mxGeometry x="570.0000000000001" y="290" width="164" height="40" as="geometry"/>
        </mxCell>
        <mxCell id="1459" value="Beschrijving van de gebruikers" style="rounded=1;fillColor=#a29dc5;strokeColor=none;strokeWidth=3;shadow=0;html=1;fontColor=#FFFFFF;" parent="1" vertex="1">
          <mxGeometry x="762.0000000000001" y="281.5" width="189" height="40" as="geometry"/>
        </mxCell>
        <mxCell id="1460" value="Verdeling van de service in componenten" style="rounded=1;fillColor=#a29dc5;strokeColor=none;strokeWidth=3;shadow=0;html=1;fontColor=#FFFFFF;" parent="1" vertex="1">
          <mxGeometry x="849.0000000000001" y="360" width="249" height="40" as="geometry"/>
        </mxCell>
        <mxCell id="1461" value="Per component dan een beschrijving van de kwaliteit, &lt;br&gt;servicetijden, beschikbaarheid, prestaties en onderhoud" style="rounded=1;fillColor=#a29dc5;strokeColor=none;strokeWidth=3;shadow=0;html=1;fontColor=#FFFFFF;" parent="1" vertex="1">
          <mxGeometry x="770.0000000000001" y="494.22" width="360" height="40" as="geometry"/>
        </mxCell>
        <mxCell id="1463" value="" style="edgeStyle=none;endArrow=none;strokeWidth=3;strokeColor=#A29DC5;html=1;" parent="1" source="1354" target="1460" edge="1">
          <mxGeometry x="-857.21" y="-160" width="100" height="100" as="geometry">
            <mxPoint x="-857.21" y="-60" as="sourcePoint"/>
            <mxPoint x="-757.21" y="-160" as="targetPoint"/>
          </mxGeometry>
        </mxCell>
        <mxCell id="1464" value="" style="edgeStyle=none;endArrow=none;strokeWidth=3;strokeColor=#A29DC5;html=1;" parent="1" source="1354" target="1461" edge="1">
          <mxGeometry x="-857.21" y="-160" width="100" height="100" as="geometry">
            <mxPoint x="-857.21" y="-60" as="sourcePoint"/>
            <mxPoint x="-757.21" y="-160" as="targetPoint"/>
          </mxGeometry>
        </mxCell>
        <mxCell id="1467" value="" style="edgeStyle=none;endArrow=none;strokeWidth=3;strokeColor=#A29DC5;html=1;" parent="1" source="1354" target="1457" edge="1">
          <mxGeometry x="-857.21" y="-160" width="100" height="100" as="geometry">
            <mxPoint x="-857.21" y="-60" as="sourcePoint"/>
            <mxPoint x="-757.21" y="-160" as="targetPoint"/>
          </mxGeometry>
        </mxCell>
        <mxCell id="1468" value="Meetbaar" style="rounded=1;fillColor=#f5af58;strokeColor=none;strokeWidth=3;shadow=0;html=1;fontColor=#FFFFFF;" parent="1" vertex="1">
          <mxGeometry x="680" y="667.5" width="120" height="40" as="geometry"/>
        </mxCell>
        <mxCell id="1469" value="Acceptabel" style="rounded=1;fillColor=#f5af58;strokeColor=none;strokeWidth=3;shadow=0;html=1;fontColor=#FFFFFF;" parent="1" vertex="1">
          <mxGeometry x="553.25" y="765" width="120" height="40" as="geometry"/>
        </mxCell>
        <mxCell id="1470" value="Realistisch" style="rounded=1;fillColor=#f5af58;strokeColor=none;strokeWidth=3;shadow=0;html=1;fontColor=#FFFFFF;" parent="1" vertex="1">
          <mxGeometry x="373.25" y="720" width="120" height="40" as="geometry"/>
        </mxCell>
        <mxCell id="1471" value="Tijdsgebonden" style="rounded=1;fillColor=#f5af58;strokeColor=none;strokeWidth=3;shadow=0;html=1;fontColor=#FFFFFF;" parent="1" vertex="1">
          <mxGeometry x="369" y="559.22" width="120" height="40" as="geometry"/>
        </mxCell>
        <mxCell id="1478" value="Specifiek" style="rounded=1;fillColor=#f5af58;strokeColor=none;strokeWidth=3;shadow=0;html=1;fontColor=#FFFFFF;" parent="1" vertex="1">
          <mxGeometry x="596.75" y="525" width="120" height="40" as="geometry"/>
        </mxCell>
        <mxCell id="1479" value="" style="edgeStyle=none;endArrow=none;strokeWidth=3;strokeColor=#F5AF58;html=1;" parent="1" source="1355" target="1478" edge="1">
          <mxGeometry x="-864.71" y="-17.5" width="100" height="100" as="geometry">
            <mxPoint x="-864.71" y="82.5" as="sourcePoint"/>
            <mxPoint x="-764.71" y="-17.5" as="targetPoint"/>
          </mxGeometry>
        </mxCell>
        <mxCell id="1480" value="" style="edgeStyle=none;endArrow=none;strokeWidth=3;strokeColor=#F5AF58;html=1;" parent="1" source="1355" target="1468" edge="1">
          <mxGeometry x="-864.71" y="-17.5" width="100" height="100" as="geometry">
            <mxPoint x="-864.71" y="82.5" as="sourcePoint"/>
            <mxPoint x="-764.71" y="-17.5" as="targetPoint"/>
          </mxGeometry>
        </mxCell>
        <mxCell id="1481" value="" style="edgeStyle=none;endArrow=none;strokeWidth=3;strokeColor=#F5AF58;html=1;" parent="1" source="1355" target="1469" edge="1">
          <mxGeometry x="-864.71" y="-17.5" width="100" height="100" as="geometry">
            <mxPoint x="-864.71" y="82.5" as="sourcePoint"/>
            <mxPoint x="-764.71" y="-17.5" as="targetPoint"/>
          </mxGeometry>
        </mxCell>
        <mxCell id="1482" value="" style="edgeStyle=none;endArrow=none;strokeWidth=3;strokeColor=#F5AF58;html=1;" parent="1" source="1355" target="1470" edge="1">
          <mxGeometry x="-864.71" y="-17.5" width="100" height="100" as="geometry">
            <mxPoint x="-864.71" y="82.5" as="sourcePoint"/>
            <mxPoint x="-764.71" y="-17.5" as="targetPoint"/>
          </mxGeometry>
        </mxCell>
        <mxCell id="1483" value="" style="edgeStyle=none;endArrow=none;strokeWidth=3;strokeColor=#F5AF58;html=1;" parent="1" source="1355" target="1471" edge="1">
          <mxGeometry x="-864.71" y="-17.5" width="100" height="100" as="geometry">
            <mxPoint x="-864.71" y="82.5" as="sourcePoint"/>
            <mxPoint x="-764.71" y="-17.5" as="targetPoint"/>
          </mxGeometry>
        </mxCell>
        <mxCell id="1498" value="afsluiten" style="rounded=1;fillColor=#f08e81;strokeColor=none;strokeWidth=3;shadow=0;html=1;fontColor=#FFFFFF;" parent="1" vertex="1">
          <mxGeometry x="-211.71" y="667.5" width="120" height="40" as="geometry"/>
        </mxCell>
        <mxCell id="1499" value="registratie standaardservices" style="rounded=1;fillColor=#f08e81;strokeColor=none;strokeWidth=3;shadow=0;html=1;fontColor=#FFFFFF;" parent="1" vertex="1">
          <mxGeometry x="-234.71000000000004" y="765" width="176.5" height="40" as="geometry"/>
        </mxCell>
        <mxCell id="1500" value="beslissen aanpassing van de servicecatalogus" style="rounded=1;fillColor=#f08e81;strokeColor=none;strokeWidth=3;shadow=0;html=1;fontColor=#FFFFFF;" parent="1" vertex="1">
          <mxGeometry x="92.49999999999997" y="765" width="276.5" height="40" as="geometry"/>
        </mxCell>
        <mxCell id="1501" value="inventarisatie van servicewensen" style="rounded=1;fillColor=#f08e81;strokeColor=none;strokeWidth=3;shadow=0;html=1;fontColor=#FFFFFF;" parent="1" vertex="1">
          <mxGeometry x="112.78999999999998" y="650" width="198.25" height="40" as="geometry"/>
        </mxCell>
        <mxCell id="1502" value="" style="edgeStyle=none;endArrow=none;strokeWidth=3;strokeColor=#F08E81;html=1;" parent="1" source="1356" target="1501" edge="1">
          <mxGeometry x="-919.71" y="-5" width="100" height="100" as="geometry">
            <mxPoint x="-919.71" y="95" as="sourcePoint"/>
            <mxPoint x="-819.71" y="-5" as="targetPoint"/>
          </mxGeometry>
        </mxCell>
        <mxCell id="1511" value="" style="edgeStyle=none;endArrow=none;strokeWidth=3;strokeColor=#F08E81;html=1;" parent="1" source="1356" target="1498" edge="1">
          <mxGeometry x="-919.71" y="-5" width="100" height="100" as="geometry">
            <mxPoint x="-919.71" y="95" as="sourcePoint"/>
            <mxPoint x="-819.71" y="-5" as="targetPoint"/>
          </mxGeometry>
        </mxCell>
        <mxCell id="1512" value="" style="edgeStyle=none;endArrow=none;strokeWidth=3;strokeColor=#F08E81;html=1;" parent="1" source="1356" target="1499" edge="1">
          <mxGeometry x="-919.71" y="-5" width="100" height="100" as="geometry">
            <mxPoint x="-919.71" y="95" as="sourcePoint"/>
            <mxPoint x="-819.71" y="-5" as="targetPoint"/>
          </mxGeometry>
        </mxCell>
        <mxCell id="1513" value="" style="edgeStyle=none;endArrow=none;strokeWidth=3;strokeColor=#F08E81;html=1;" parent="1" source="1356" target="1500" edge="1">
          <mxGeometry x="-919.71" y="-5" width="100" height="100" as="geometry">
            <mxPoint x="-919.71" y="95" as="sourcePoint"/>
            <mxPoint x="-819.71" y="-5" as="targetPoint"/>
          </mxGeometry>
        </mxCell>
        <mxCell id="1515" value="SLM" style="ellipse;whiteSpace=wrap;html=1;shadow=0;fontFamily=Helvetica;fontSize=30;fontColor=#2F5B7C;align=center;strokeColor=#2F5B7C;strokeWidth=6;fillColor=#FFFFFF;fontStyle=1;gradientColor=none;" parent="1" vertex="1">
          <mxGeometry x="-170" y="485.78" width="164.5" height="164.22" as="geometry"/>
        </mxCell>
        <mxCell id="1516" value="Slagen SLM" style="ellipse;whiteSpace=wrap;html=1;shadow=0;fontFamily=Helvetica;fontSize=20;fontColor=#FFFFFF;align=center;strokeWidth=3;fillColor=#736ca8;strokeColor=none;" parent="1" vertex="1">
          <mxGeometry x="-896.5" y="348.5" width="108" height="111.5" as="geometry"/>
        </mxCell>
        <mxCell id="1517" value="Control: &lt;br&gt;grip op leveranciers" style="rounded=1;fillColor=#a29dc5;strokeColor=none;strokeWidth=3;shadow=0;html=1;fontColor=#FFFFFF;" parent="1" vertex="1">
          <mxGeometry x="-979.5" y="235" width="151.5" height="40" as="geometry"/>
        </mxCell>
        <mxCell id="1518" value="Begrijpelijkheid &lt;br&gt;servicecatalogus" style="rounded=1;fillColor=#a29dc5;strokeColor=none;strokeWidth=3;shadow=0;html=1;fontColor=#FFFFFF;" parent="1" vertex="1">
          <mxGeometry x="-722.01" y="348.5" width="120" height="40" as="geometry"/>
        </mxCell>
        <mxCell id="1522" value="Prijs" style="rounded=1;fillColor=#a29dc5;strokeColor=none;strokeWidth=3;shadow=0;html=1;fontColor=#FFFFFF;" parent="1" vertex="1">
          <mxGeometry x="-1120" y="282.5" width="120" height="40" as="geometry"/>
        </mxCell>
        <mxCell id="1523" value="Klanttevredenheid" style="rounded=1;fillColor=#a29dc5;strokeColor=none;strokeWidth=3;shadow=0;html=1;fontColor=#FFFFFF;" parent="1" vertex="1">
          <mxGeometry x="-769.25" y="455.78000000000003" width="120" height="40" as="geometry"/>
        </mxCell>
        <mxCell id="1524" value="Servicerealisatie" style="rounded=1;fillColor=#a29dc5;strokeColor=none;strokeWidth=3;shadow=0;html=1;fontColor=#FFFFFF;" parent="1" vertex="1">
          <mxGeometry x="-806.21" y="534.22" width="120" height="40" as="geometry"/>
        </mxCell>
        <mxCell id="1525" value="Business ondersteuning" style="rounded=1;fillColor=#a29dc5;strokeColor=none;strokeWidth=3;shadow=0;html=1;fontColor=#FFFFFF;" parent="1" vertex="1">
          <mxGeometry x="-970" y="534.22" width="142" height="40" as="geometry"/>
        </mxCell>
        <mxCell id="1526" value="Gebruikerstevredenheid" style="rounded=1;fillColor=#a29dc5;strokeColor=none;strokeWidth=3;shadow=0;html=1;fontColor=#FFFFFF;" parent="1" vertex="1">
          <mxGeometry x="-1077" y="485" width="142" height="40" as="geometry"/>
        </mxCell>
        <mxCell id="1527" value="Heldere afspraken" style="rounded=1;fillColor=#a29dc5;strokeColor=none;strokeWidth=3;shadow=0;html=1;fontColor=#FFFFFF;" parent="1" vertex="1">
          <mxGeometry x="-1160" y="430" width="120" height="40" as="geometry"/>
        </mxCell>
        <mxCell id="1528" value="" style="edgeStyle=none;endArrow=none;strokeWidth=3;strokeColor=#A29DC5;html=1;" parent="1" source="1516" target="1517" edge="1">
          <mxGeometry x="-2606.21" y="-360" width="100" height="100" as="geometry">
            <mxPoint x="-2606.21" y="-260" as="sourcePoint"/>
            <mxPoint x="-2506.21" y="-360" as="targetPoint"/>
          </mxGeometry>
        </mxCell>
        <mxCell id="1529" value="Rapportagewaardering" style="rounded=1;fillColor=#a29dc5;strokeColor=none;strokeWidth=3;shadow=0;html=1;fontColor=#FFFFFF;" parent="1" vertex="1">
          <mxGeometry x="-1147" y="360" width="147" height="40" as="geometry"/>
        </mxCell>
        <mxCell id="1530" value="" style="edgeStyle=none;endArrow=none;strokeWidth=3;strokeColor=#A29DC5;html=1;" parent="1" source="1516" target="1518" edge="1">
          <mxGeometry x="-2606.21" y="-360" width="100" height="100" as="geometry">
            <mxPoint x="-2606.21" y="-260" as="sourcePoint"/>
            <mxPoint x="-2506.21" y="-360" as="targetPoint"/>
          </mxGeometry>
        </mxCell>
        <mxCell id="1534" value="" style="edgeStyle=none;endArrow=none;strokeWidth=3;strokeColor=#A29DC5;html=1;" parent="1" source="1516" target="1522" edge="1">
          <mxGeometry x="-2606.21" y="-360" width="100" height="100" as="geometry">
            <mxPoint x="-2606.21" y="-260" as="sourcePoint"/>
            <mxPoint x="-2506.21" y="-360" as="targetPoint"/>
          </mxGeometry>
        </mxCell>
        <mxCell id="1535" value="" style="edgeStyle=none;endArrow=none;strokeWidth=3;strokeColor=#A29DC5;html=1;" parent="1" source="1516" target="1523" edge="1">
          <mxGeometry x="-2606.21" y="-360" width="100" height="100" as="geometry">
            <mxPoint x="-2606.21" y="-260" as="sourcePoint"/>
            <mxPoint x="-2506.21" y="-360" as="targetPoint"/>
          </mxGeometry>
        </mxCell>
        <mxCell id="1536" value="" style="edgeStyle=none;endArrow=none;strokeWidth=3;strokeColor=#A29DC5;html=1;" parent="1" source="1516" target="1524" edge="1">
          <mxGeometry x="-2606.21" y="-360" width="100" height="100" as="geometry">
            <mxPoint x="-2606.21" y="-260" as="sourcePoint"/>
            <mxPoint x="-2506.21" y="-360" as="targetPoint"/>
          </mxGeometry>
        </mxCell>
        <mxCell id="1537" value="" style="edgeStyle=none;endArrow=none;strokeWidth=3;strokeColor=#A29DC5;html=1;" parent="1" source="1516" target="1525" edge="1">
          <mxGeometry x="-2606.21" y="-360" width="100" height="100" as="geometry">
            <mxPoint x="-2606.21" y="-260" as="sourcePoint"/>
            <mxPoint x="-2506.21" y="-360" as="targetPoint"/>
          </mxGeometry>
        </mxCell>
        <mxCell id="1538" value="" style="edgeStyle=none;endArrow=none;strokeWidth=3;strokeColor=#A29DC5;html=1;" parent="1" source="1516" target="1526" edge="1">
          <mxGeometry x="-2606.21" y="-360" width="100" height="100" as="geometry">
            <mxPoint x="-2606.21" y="-260" as="sourcePoint"/>
            <mxPoint x="-2506.21" y="-360" as="targetPoint"/>
          </mxGeometry>
        </mxCell>
        <mxCell id="1539" value="" style="edgeStyle=none;endArrow=none;strokeWidth=3;strokeColor=#A29DC5;html=1;" parent="1" source="1516" target="1527" edge="1">
          <mxGeometry x="-2606.21" y="-360" width="100" height="100" as="geometry">
            <mxPoint x="-2606.21" y="-260" as="sourcePoint"/>
            <mxPoint x="-2506.21" y="-360" as="targetPoint"/>
          </mxGeometry>
        </mxCell>
        <mxCell id="1540" value="" style="edgeStyle=none;endArrow=none;strokeWidth=3;strokeColor=#A29DC5;html=1;" parent="1" source="1516" target="1529" edge="1">
          <mxGeometry x="-2606.21" y="-360" width="100" height="100" as="geometry">
            <mxPoint x="-2606.21" y="-260" as="sourcePoint"/>
            <mxPoint x="-2506.21" y="-360" as="targetPoint"/>
          </mxGeometry>
        </mxCell>
        <mxCell id="1541" value="" style="edgeStyle=none;endArrow=none;strokeWidth=3;strokeColor=#A29DC5;html=1;" parent="1" source="1354" target="1459" edge="1">
          <mxGeometry x="-2282.21" y="-465" width="100" height="100" as="geometry">
            <mxPoint x="-2282.21" y="-365" as="sourcePoint"/>
            <mxPoint x="-2182.21" y="-465" as="targetPoint"/>
          </mxGeometry>
        </mxCell>
        <mxCell id="1542" style="edgeStyle=none;rounded=0;html=1;exitX=0.5;exitY=1;endArrow=none;endFill=0;jettySize=auto;orthogonalLoop=1;strokeColor=#736CA8;strokeWidth=2;fillColor=#64bbe2;fontSize=20;fontColor=#23445D;" parent="1" source="1529" target="1529" edge="1">
          <mxGeometry relative="1" as="geometry"/>
        </mxCell>
        <mxCell id="lY6t4aZSWO1BoxrxZ2rH-1559" style="endArrow=none;strokeWidth=6;strokeColor=#001DBC;html=1;fillColor=#0050ef;exitX=0.001;exitY=0.628;exitDx=0;exitDy=0;exitPerimeter=0;" parent="1" source="1515" target="lY6t4aZSWO1BoxrxZ2rH-1561" edge="1">
          <mxGeometry relative="1" as="geometry">
            <mxPoint x="-133.2072800000002" y="810.4409999999999" as="sourcePoint"/>
            <mxPoint x="-578.21" y="1123.5" as="targetPoint"/>
          </mxGeometry>
        </mxCell>
        <mxCell id="lY6t4aZSWO1BoxrxZ2rH-1561" value="Service-afspraken&lt;br&gt;&lt;font style=&quot;font-size: 14px&quot;&gt;(maken en &lt;br&gt;onderhouden)&lt;/font&gt;" style="ellipse;whiteSpace=wrap;html=1;shadow=0;fontFamily=Helvetica;fontSize=20;fontColor=#ffffff;align=center;strokeWidth=3;fillColor=#0050ef;strokeColor=#001DBC;" parent="1" vertex="1">
          <mxGeometry x="-674.7100000000002" y="640" width="151.88" height="143.5" as="geometry"/>
        </mxCell>
        <mxCell id="lY6t4aZSWO1BoxrxZ2rH-1562" value="Beslissen over offerte" style="rounded=1;fillColor=#0050ef;strokeColor=#001DBC;strokeWidth=3;shadow=0;html=1;fontColor=#ffffff;" parent="1" vertex="1">
          <mxGeometry x="-1050" y="740" width="160" height="40" as="geometry"/>
        </mxCell>
        <mxCell id="lY6t4aZSWO1BoxrxZ2rH-1563" value="Onderhandelen" style="rounded=1;fillColor=#0050ef;strokeColor=#001DBC;strokeWidth=3;shadow=0;html=1;fontColor=#ffffff;" parent="1" vertex="1">
          <mxGeometry x="-1074.2099999999998" y="668.28" width="161.12" height="40" as="geometry"/>
        </mxCell>
        <mxCell id="lY6t4aZSWO1BoxrxZ2rH-1564" value="Verzamelen van eisen en wensen" style="rounded=1;fillColor=#0050ef;strokeColor=#001DBC;strokeWidth=3;shadow=0;html=1;fontColor=#ffffff;" parent="1" vertex="1">
          <mxGeometry x="-475.88000000000017" y="690" width="215.88" height="40" as="geometry"/>
        </mxCell>
        <mxCell id="lY6t4aZSWO1BoxrxZ2rH-1565" value="Specificeren van gewenste service" style="rounded=1;fillColor=#0050ef;strokeColor=#001DBC;strokeWidth=3;shadow=0;html=1;fontColor=#ffffff;" parent="1" vertex="1">
          <mxGeometry x="-522.8299999999999" y="760.78" width="209" height="40" as="geometry"/>
        </mxCell>
        <mxCell id="lY6t4aZSWO1BoxrxZ2rH-1566" value="Verifiëren van impact en haalbaarheid" style="rounded=1;fillColor=#0050ef;strokeColor=#001DBC;strokeWidth=3;shadow=0;html=1;fontColor=#ffffff;" parent="1" vertex="1">
          <mxGeometry x="-880" y="770" width="223.5" height="40" as="geometry"/>
        </mxCell>
        <mxCell id="lY6t4aZSWO1BoxrxZ2rH-1567" value="" style="edgeStyle=none;endArrow=none;strokeWidth=3;strokeColor=#001DBC;html=1;fillColor=#0050ef;" parent="1" source="lY6t4aZSWO1BoxrxZ2rH-1561" target="lY6t4aZSWO1BoxrxZ2rH-1562" edge="1">
          <mxGeometry x="-2254.59" y="990.5" width="100" height="100" as="geometry">
            <mxPoint x="-2254.59" y="1090.5" as="sourcePoint"/>
            <mxPoint x="-2154.59" y="990.5" as="targetPoint"/>
          </mxGeometry>
        </mxCell>
        <mxCell id="lY6t4aZSWO1BoxrxZ2rH-1568" value="" style="edgeStyle=none;endArrow=none;strokeWidth=3;strokeColor=#001DBC;html=1;fillColor=#0050ef;" parent="1" source="lY6t4aZSWO1BoxrxZ2rH-1561" target="lY6t4aZSWO1BoxrxZ2rH-1564" edge="1">
          <mxGeometry x="-2254.59" y="990.5" width="100" height="100" as="geometry">
            <mxPoint x="-2254.59" y="1090.5" as="sourcePoint"/>
            <mxPoint x="-2154.59" y="990.5" as="targetPoint"/>
          </mxGeometry>
        </mxCell>
        <mxCell id="lY6t4aZSWO1BoxrxZ2rH-1569" value="" style="edgeStyle=none;endArrow=none;strokeWidth=3;strokeColor=#001DBC;html=1;fillColor=#0050ef;" parent="1" source="lY6t4aZSWO1BoxrxZ2rH-1561" target="lY6t4aZSWO1BoxrxZ2rH-1565" edge="1">
          <mxGeometry x="-2254.59" y="990.5" width="100" height="100" as="geometry">
            <mxPoint x="-2254.59" y="1090.5" as="sourcePoint"/>
            <mxPoint x="-2154.59" y="990.5" as="targetPoint"/>
          </mxGeometry>
        </mxCell>
        <mxCell id="lY6t4aZSWO1BoxrxZ2rH-1570" value="" style="edgeStyle=none;endArrow=none;strokeWidth=3;strokeColor=#001DBC;html=1;fillColor=#0050ef;" parent="1" source="lY6t4aZSWO1BoxrxZ2rH-1561" target="lY6t4aZSWO1BoxrxZ2rH-1566" edge="1">
          <mxGeometry x="-2254.59" y="990.5" width="100" height="100" as="geometry">
            <mxPoint x="-2254.59" y="1090.5" as="sourcePoint"/>
            <mxPoint x="-2154.59" y="990.5" as="targetPoint"/>
          </mxGeometry>
        </mxCell>
        <mxCell id="lY6t4aZSWO1BoxrxZ2rH-1571" value="" style="edgeStyle=none;endArrow=none;strokeWidth=3;strokeColor=#001DBC;html=1;fillColor=#0050ef;entryX=1;entryY=0.5;entryDx=0;entryDy=0;" parent="1" source="lY6t4aZSWO1BoxrxZ2rH-1561" target="lY6t4aZSWO1BoxrxZ2rH-1563" edge="1">
          <mxGeometry x="-2244.59" y="1000.5" width="100" height="100" as="geometry">
            <mxPoint x="-747.3908236335628" y="1233.6828263791124" as="sourcePoint"/>
            <mxPoint x="-1008.21" y="1270.5" as="targetPoint"/>
          </mxGeometry>
        </mxCell>
        <mxCell id="lY6t4aZSWO1BoxrxZ2rH-1573" value="Doorvoeren serviceafspraken" style="rounded=1;fillColor=#0050ef;strokeColor=#001DBC;strokeWidth=3;shadow=0;html=1;fontColor=#ffffff;" parent="1" vertex="1">
          <mxGeometry x="-1019.9999999999999" y="600" width="196.32" height="40" as="geometry"/>
        </mxCell>
        <mxCell id="lY6t4aZSWO1BoxrxZ2rH-1574" value="" style="edgeStyle=none;endArrow=none;strokeWidth=3;strokeColor=#001DBC;html=1;fillColor=#0050ef;entryX=0.5;entryY=1;entryDx=0;entryDy=0;" parent="1" source="lY6t4aZSWO1BoxrxZ2rH-1561" target="lY6t4aZSWO1BoxrxZ2rH-1573" edge="1">
          <mxGeometry x="-2269.79" y="822" width="100" height="100" as="geometry">
            <mxPoint x="-928.2138040881994" y="1085.7800329913493" as="sourcePoint"/>
            <mxPoint x="-1033.41" y="1092" as="targetPoint"/>
          </mxGeometry>
        </mxCell>
        <mxCell id="lY6t4aZSWO1BoxrxZ2rH-1575" value="Toetsen aanpassing servicecatalogus" style="rounded=1;fillColor=#0050ef;strokeColor=#001DBC;strokeWidth=3;shadow=0;html=1;fontColor=#ffffff;" parent="1" vertex="1">
          <mxGeometry x="-788.5" y="586" width="227.82" height="40" as="geometry"/>
        </mxCell>
        <mxCell id="lY6t4aZSWO1BoxrxZ2rH-1576" value="" style="edgeStyle=none;endArrow=none;strokeWidth=3;strokeColor=#001DBC;html=1;fillColor=#0050ef;entryX=0.5;entryY=1;entryDx=0;entryDy=0;" parent="1" source="lY6t4aZSWO1BoxrxZ2rH-1561" target="lY6t4aZSWO1BoxrxZ2rH-1575" edge="1">
          <mxGeometry x="-2131.29" y="670.22" width="100" height="100" as="geometry">
            <mxPoint x="-789.7138040881994" y="934.0000329913494" as="sourcePoint"/>
            <mxPoint x="-894.9100000000001" y="940.22" as="targetPoint"/>
          </mxGeometry>
        </mxCell>
        <mxCell id="lY6t4aZSWO1BoxrxZ2rH-1577" value="Afsluiten" style="rounded=1;fillColor=#0050ef;strokeColor=#001DBC;strokeWidth=3;shadow=0;html=1;fontColor=#ffffff;" parent="1" vertex="1">
          <mxGeometry x="-522.83" y="560" width="161.12" height="40" as="geometry"/>
        </mxCell>
        <mxCell id="lY6t4aZSWO1BoxrxZ2rH-1578" value="" style="edgeStyle=none;endArrow=none;strokeWidth=3;strokeColor=#001DBC;html=1;fillColor=#0050ef;entryX=0.5;entryY=1;entryDx=0;entryDy=0;" parent="1" source="lY6t4aZSWO1BoxrxZ2rH-1561" target="lY6t4aZSWO1BoxrxZ2rH-1577" edge="1">
          <mxGeometry x="-1983.4700000000003" y="728.5" width="100" height="100" as="geometry">
            <mxPoint x="-641.8938040881993" y="992.2800329913493" as="sourcePoint"/>
            <mxPoint x="-747.09" y="998.5" as="targetPoint"/>
          </mxGeometry>
        </mxCell>
        <mxCell id="61DMd2a8S4PAV4XTqUyv-1547" value="De student kan de geleverde dienst evalueren aan de hand van de SLA en daarin &lt;br&gt;beschreven prestatie indicatoren door het herkennen van trends in de dienstverlening." style="text;html=1;rotation=12;" parent="1" vertex="1">
          <mxGeometry x="-637.0600000000001" y="507.5" width="528.21" height="30" as="geometry"/>
        </mxCell>
        <mxCell id="61DMd2a8S4PAV4XTqUyv-1546" value="De student kan servicerapportages analyseren en zo uitspraken doen over de geleverde diensten." style="text;html=1;rotation=351;" parent="1" vertex="1">
          <mxGeometry x="80" y="469.78" width="550" height="30" as="geometry"/>
        </mxCell>
        <mxCell id="61DMd2a8S4PAV4XTqUyv-1562" value="Bedrijfsplan" style="ellipse;whiteSpace=wrap;html=1;shadow=0;fontFamily=Helvetica;fontSize=20;fontColor=#FFFFFF;align=center;strokeWidth=3;fillColor=#E85642;strokeColor=none;" parent="1" vertex="1">
          <mxGeometry x="-981.84" y="910" width="120" height="120" as="geometry"/>
        </mxCell>
        <mxCell id="61DMd2a8S4PAV4XTqUyv-1563" value="Personeelsplan" style="rounded=1;fillColor=#f08e81;strokeColor=none;strokeWidth=3;shadow=0;html=1;fontColor=#FFFFFF;" parent="1" vertex="1">
          <mxGeometry x="-1146.5" y="905" width="126.5" height="40" as="geometry"/>
        </mxCell>
        <mxCell id="61DMd2a8S4PAV4XTqUyv-1566" value="" style="edgeStyle=none;endArrow=none;strokeWidth=3;strokeColor=#F08E81;html=1;exitX=0.615;exitY=1.007;exitDx=0;exitDy=0;exitPerimeter=0;" parent="1" source="61DMd2a8S4PAV4XTqUyv-1563" target="61DMd2a8S4PAV4XTqUyv-1562" edge="1">
          <mxGeometry x="-939.71" y="-15" width="100" height="100" as="geometry">
            <mxPoint x="-310" y="960" as="sourcePoint"/>
            <mxPoint x="-98.74270425951227" y="770" as="targetPoint"/>
          </mxGeometry>
        </mxCell>
        <mxCell id="61DMd2a8S4PAV4XTqUyv-1567" style="endArrow=none;strokeWidth=6;strokeColor=#6D1F00;html=1;fillColor=#a0522d;" parent="1" edge="1">
          <mxGeometry relative="1" as="geometry">
            <mxPoint x="1160" y="830" as="sourcePoint"/>
            <mxPoint x="-1150" y="830" as="targetPoint"/>
          </mxGeometry>
        </mxCell>
        <mxCell id="voT6KS4KQfKfTc6dw4Qr-1542" value="" style="edgeStyle=none;endArrow=none;strokeWidth=6;strokeColor=#E85642;html=1;entryX=0;entryY=0;entryDx=0;entryDy=0;" edge="1" parent="1" source="61DMd2a8S4PAV4XTqUyv-1562" target="61DMd2a8S4PAV4XTqUyv-1561">
          <mxGeometry x="-917.21" y="180" width="100" height="100" as="geometry">
            <mxPoint x="-32.01213757581809" y="646.133794728145" as="sourcePoint"/>
            <mxPoint x="-2.698833537030623" y="689.5018365397755" as="targetPoint"/>
          </mxGeometry>
        </mxCell>
        <mxCell id="voT6KS4KQfKfTc6dw4Qr-1543" value="Productieplan" style="rounded=1;fillColor=#f08e81;strokeColor=none;strokeWidth=3;shadow=0;html=1;fontColor=#FFFFFF;" vertex="1" parent="1">
          <mxGeometry x="-1151.25" y="970" width="136" height="40" as="geometry"/>
        </mxCell>
        <mxCell id="voT6KS4KQfKfTc6dw4Qr-1544" value="" style="edgeStyle=none;endArrow=none;strokeWidth=3;strokeColor=#F08E81;html=1;exitX=0.615;exitY=1.007;exitDx=0;exitDy=0;exitPerimeter=0;" edge="1" parent="1" source="voT6KS4KQfKfTc6dw4Qr-1543" target="61DMd2a8S4PAV4XTqUyv-1562">
          <mxGeometry x="-1271.89" y="5" width="100" height="100" as="geometry">
            <mxPoint x="-642.1800000000001" y="980" as="sourcePoint"/>
            <mxPoint x="-992.4608703642987" y="989.5438381587069" as="targetPoint"/>
          </mxGeometry>
        </mxCell>
        <mxCell id="voT6KS4KQfKfTc6dw4Qr-1545" value="Inkoopplan" style="rounded=1;fillColor=#f08e81;strokeColor=none;strokeWidth=3;shadow=0;html=1;fontColor=#FFFFFF;" vertex="1" parent="1">
          <mxGeometry x="-1099.59" y="1040" width="129.59" height="40" as="geometry"/>
        </mxCell>
        <mxCell id="voT6KS4KQfKfTc6dw4Qr-1546" value="" style="edgeStyle=none;endArrow=none;strokeWidth=3;strokeColor=#F08E81;html=1;entryX=0.75;entryY=0;entryDx=0;entryDy=0;" edge="1" parent="1" source="61DMd2a8S4PAV4XTqUyv-1562" target="voT6KS4KQfKfTc6dw4Qr-1545">
          <mxGeometry x="-1285" y="215" width="100" height="100" as="geometry">
            <mxPoint x="-655.29" y="1190" as="sourcePoint"/>
            <mxPoint x="-1005.5708703642986" y="1199.5438381587069" as="targetPoint"/>
          </mxGeometry>
        </mxCell>
        <mxCell id="voT6KS4KQfKfTc6dw4Qr-1547" value="Verkoopplan" style="rounded=1;fillColor=#f08e81;strokeColor=none;strokeWidth=3;shadow=0;html=1;fontColor=#FFFFFF;" vertex="1" parent="1">
          <mxGeometry x="-908.5" y="1040" width="120" height="40" as="geometry"/>
        </mxCell>
        <mxCell id="voT6KS4KQfKfTc6dw4Qr-1548" value="" style="edgeStyle=none;endArrow=none;strokeWidth=3;strokeColor=#F08E81;html=1;exitX=0.44;exitY=-0.018;exitDx=0;exitDy=0;exitPerimeter=0;" edge="1" parent="1" source="voT6KS4KQfKfTc6dw4Qr-1547" target="61DMd2a8S4PAV4XTqUyv-1562">
          <mxGeometry x="-1034.25" y="319.68" width="100" height="100" as="geometry">
            <mxPoint x="-691" y="1210" as="sourcePoint"/>
            <mxPoint x="-754.8208703642986" y="1304.223838158707" as="targetPoint"/>
          </mxGeometry>
        </mxCell>
        <mxCell id="voT6KS4KQfKfTc6dw4Qr-1549" value="Informatieplan" style="rounded=1;fillColor=#f08e81;strokeColor=none;strokeWidth=3;shadow=0;html=1;fontColor=#FFFFFF;" vertex="1" parent="1">
          <mxGeometry x="-945.75" y="855" width="125.75" height="40" as="geometry"/>
        </mxCell>
        <mxCell id="voT6KS4KQfKfTc6dw4Qr-1550" value="" style="edgeStyle=none;endArrow=none;strokeWidth=3;strokeColor=#F08E81;html=1;entryX=0.5;entryY=0;entryDx=0;entryDy=0;" edge="1" parent="1" source="voT6KS4KQfKfTc6dw4Qr-1549" target="61DMd2a8S4PAV4XTqUyv-1562">
          <mxGeometry x="-653.21" y="55" width="100" height="100" as="geometry">
            <mxPoint x="-23.5" y="1030" as="sourcePoint"/>
            <mxPoint x="-373.7808703642986" y="1039.5438381587069" as="targetPoint"/>
          </mxGeometry>
        </mxCell>
        <mxCell id="voT6KS4KQfKfTc6dw4Qr-1551" value="Financieel plan" style="rounded=1;fillColor=#f08e81;strokeColor=none;strokeWidth=3;shadow=0;html=1;fontColor=#FFFFFF;" vertex="1" parent="1">
          <mxGeometry x="-1081.9" y="850" width="111.9" height="40" as="geometry"/>
        </mxCell>
        <mxCell id="voT6KS4KQfKfTc6dw4Qr-1552" value="" style="edgeStyle=none;endArrow=none;strokeWidth=3;strokeColor=#F08E81;html=1;exitX=0.615;exitY=1.007;exitDx=0;exitDy=0;exitPerimeter=0;" edge="1" parent="1" source="voT6KS4KQfKfTc6dw4Qr-1551" target="61DMd2a8S4PAV4XTqUyv-1562">
          <mxGeometry x="-805" y="85.46000000000001" width="100" height="100" as="geometry">
            <mxPoint x="-175.29000000000002" y="1060.46" as="sourcePoint"/>
            <mxPoint x="-525.5708703642986" y="1070.003838158707" as="targetPoint"/>
          </mxGeometry>
        </mxCell>
        <mxCell id="61DMd2a8S4PAV4XTqUyv-1561" value="Ontwikkelen&lt;br&gt;van&amp;nbsp;&lt;br&gt;bedrijfsplannen" style="ellipse;whiteSpace=wrap;html=1;shadow=0;fontFamily=Helvetica;fontSize=30;fontColor=#2F5B7C;align=center;strokeColor=#2F5B7C;strokeWidth=6;fillColor=#FFFFFF;fontStyle=1;gradientColor=none;" parent="1" vertex="1">
          <mxGeometry x="-150" y="1140" width="301.75" height="190" as="geometry"/>
        </mxCell>
        <mxCell id="voT6KS4KQfKfTc6dw4Qr-1553" value="Vijfkrachten model" style="ellipse;whiteSpace=wrap;html=1;shadow=0;fontFamily=Helvetica;fontSize=20;fontColor=#FFFFFF;align=center;strokeWidth=3;fillColor=#736ca8;strokeColor=none;" vertex="1" parent="1">
          <mxGeometry x="-361.70999999999987" y="870" width="120" height="120" as="geometry"/>
        </mxCell>
        <mxCell id="voT6KS4KQfKfTc6dw4Qr-1554" style="endArrow=none;strokeWidth=6;strokeColor=#736ca8;html=1;exitX=0.311;exitY=0.03;exitDx=0;exitDy=0;exitPerimeter=0;entryX=1;entryY=1;entryDx=0;entryDy=0;" edge="1" parent="1" source="61DMd2a8S4PAV4XTqUyv-1561" target="voT6KS4KQfKfTc6dw4Qr-1553">
          <mxGeometry relative="1" as="geometry">
            <mxPoint x="-1050.0034999999996" y="1110.98066" as="sourcePoint"/>
            <mxPoint x="-393.01" y="1007.02" as="targetPoint"/>
          </mxGeometry>
        </mxCell>
        <mxCell id="voT6KS4KQfKfTc6dw4Qr-1555" value="De dreiging van de nieuwe toetreders" style="rounded=1;fillColor=#a29dc5;strokeColor=none;strokeWidth=3;shadow=0;html=1;fontColor=#FFFFFF;" vertex="1" parent="1">
          <mxGeometry x="-427.46" y="1040" width="224.01" height="40" as="geometry"/>
        </mxCell>
        <mxCell id="voT6KS4KQfKfTc6dw4Qr-1556" value="" style="edgeStyle=none;endArrow=none;strokeWidth=3;strokeColor=#A29DC5;html=1;" edge="1" parent="1" source="voT6KS4KQfKfTc6dw4Qr-1553" target="voT6KS4KQfKfTc6dw4Qr-1555">
          <mxGeometry x="-1901.22" y="399.02" width="100" height="100" as="geometry">
            <mxPoint x="-1901.22" y="499.02" as="sourcePoint"/>
            <mxPoint x="-1801.22" y="399.02" as="targetPoint"/>
          </mxGeometry>
        </mxCell>
        <mxCell id="voT6KS4KQfKfTc6dw4Qr-1557" value="De onderhandelingsmacht van leveranciers" style="rounded=1;fillColor=#a29dc5;strokeColor=none;strokeWidth=3;shadow=0;html=1;fontColor=#FFFFFF;" vertex="1" parent="1">
          <mxGeometry x="-581.71" y="990" width="250" height="40" as="geometry"/>
        </mxCell>
        <mxCell id="voT6KS4KQfKfTc6dw4Qr-1558" value="" style="edgeStyle=none;endArrow=none;strokeWidth=3;strokeColor=#A29DC5;html=1;exitX=0;exitY=0.5;exitDx=0;exitDy=0;" edge="1" parent="1" target="voT6KS4KQfKfTc6dw4Qr-1557" source="voT6KS4KQfKfTc6dw4Qr-1553">
          <mxGeometry x="-2023.76" y="315.02" width="100" height="100" as="geometry">
            <mxPoint x="-398.53999999999996" y="923.9999999999991" as="sourcePoint"/>
            <mxPoint x="-1923.76" y="315.02" as="targetPoint"/>
          </mxGeometry>
        </mxCell>
        <mxCell id="voT6KS4KQfKfTc6dw4Qr-1559" value="De onderhandelingsmacht van kopers" style="rounded=1;fillColor=#a29dc5;strokeColor=none;strokeWidth=3;shadow=0;html=1;fontColor=#FFFFFF;" vertex="1" parent="1">
          <mxGeometry x="-590" y="860" width="224.01" height="40" as="geometry"/>
        </mxCell>
        <mxCell id="voT6KS4KQfKfTc6dw4Qr-1560" value="" style="edgeStyle=none;endArrow=none;strokeWidth=3;strokeColor=#A29DC5;html=1;" edge="1" parent="1" target="voT6KS4KQfKfTc6dw4Qr-1559" source="voT6KS4KQfKfTc6dw4Qr-1553">
          <mxGeometry x="-1881.22" y="201.01999999999998" width="100" height="100" as="geometry">
            <mxPoint x="-256" y="809.9999999999991" as="sourcePoint"/>
            <mxPoint x="-1781.22" y="201.01999999999998" as="targetPoint"/>
          </mxGeometry>
        </mxCell>
        <mxCell id="voT6KS4KQfKfTc6dw4Qr-1561" value="De dreiging van substituten" style="rounded=1;fillColor=#a29dc5;strokeColor=none;strokeWidth=3;shadow=0;html=1;fontColor=#FFFFFF;" vertex="1" parent="1">
          <mxGeometry x="-256.96" y="840" width="224.01" height="40" as="geometry"/>
        </mxCell>
        <mxCell id="voT6KS4KQfKfTc6dw4Qr-1562" value="" style="edgeStyle=none;endArrow=none;strokeWidth=3;strokeColor=#A29DC5;html=1;" edge="1" parent="1" target="voT6KS4KQfKfTc6dw4Qr-1561" source="voT6KS4KQfKfTc6dw4Qr-1553">
          <mxGeometry x="-1623.76" y="219.01999999999998" width="100" height="100" as="geometry">
            <mxPoint x="1.460000000000008" y="827.9999999999991" as="sourcePoint"/>
            <mxPoint x="-1523.76" y="219.01999999999998" as="targetPoint"/>
          </mxGeometry>
        </mxCell>
        <mxCell id="voT6KS4KQfKfTc6dw4Qr-1563" value="De onderlinge rivaliteit tussen concurrenten" style="rounded=1;fillColor=#a29dc5;strokeColor=none;strokeWidth=3;shadow=0;html=1;fontColor=#FFFFFF;" vertex="1" parent="1">
          <mxGeometry x="-228.75" y="950" width="249.75" height="40" as="geometry"/>
        </mxCell>
        <mxCell id="voT6KS4KQfKfTc6dw4Qr-1564" value="" style="edgeStyle=none;endArrow=none;strokeWidth=3;strokeColor=#A29DC5;html=1;exitX=1;exitY=0.5;exitDx=0;exitDy=0;" edge="1" parent="1" target="voT6KS4KQfKfTc6dw4Qr-1563" source="voT6KS4KQfKfTc6dw4Qr-1553">
          <mxGeometry x="-1615.47" y="311.02" width="100" height="100" as="geometry">
            <mxPoint x="9.75" y="919.9999999999991" as="sourcePoint"/>
            <mxPoint x="-1515.47" y="311.02" as="targetPoint"/>
          </mxGeometry>
        </mxCell>
        <mxCell id="voT6KS4KQfKfTc6dw4Qr-1565" value="STEP&lt;br&gt;analyse&lt;br&gt;(indirecte omgeving)" style="ellipse;whiteSpace=wrap;html=1;shadow=0;fontFamily=Helvetica;fontSize=20;fontColor=#FFFFFF;align=center;strokeWidth=3;fillColor=#F08705;strokeColor=none;gradientColor=none;" vertex="1" parent="1">
          <mxGeometry x="30" y="950" width="146.54" height="140" as="geometry"/>
        </mxCell>
        <mxCell id="voT6KS4KQfKfTc6dw4Qr-1566" value="Sociaal-cultureel" style="rounded=1;fillColor=#f5af58;strokeColor=none;strokeWidth=3;shadow=0;html=1;fontColor=#FFFFFF;" vertex="1" parent="1">
          <mxGeometry x="21.879999999999963" y="860" width="120" height="40" as="geometry"/>
        </mxCell>
        <mxCell id="voT6KS4KQfKfTc6dw4Qr-1568" value="" style="edgeStyle=none;endArrow=none;strokeWidth=3;strokeColor=#F5AF58;html=1;" edge="1" parent="1" source="voT6KS4KQfKfTc6dw4Qr-1565" target="voT6KS4KQfKfTc6dw4Qr-1566">
          <mxGeometry x="-588.96" y="550" width="100" height="100" as="geometry">
            <mxPoint x="-588.96" y="650" as="sourcePoint"/>
            <mxPoint x="-488.96000000000004" y="550" as="targetPoint"/>
          </mxGeometry>
        </mxCell>
        <mxCell id="voT6KS4KQfKfTc6dw4Qr-1569" value="Technologie" style="rounded=1;fillColor=#f5af58;strokeColor=none;strokeWidth=3;shadow=0;html=1;fontColor=#FFFFFF;" vertex="1" parent="1">
          <mxGeometry x="191.03999999999994" y="880" width="120" height="40" as="geometry"/>
        </mxCell>
        <mxCell id="voT6KS4KQfKfTc6dw4Qr-1570" value="" style="edgeStyle=none;endArrow=none;strokeWidth=3;strokeColor=#F5AF58;html=1;" edge="1" parent="1" target="voT6KS4KQfKfTc6dw4Qr-1569" source="voT6KS4KQfKfTc6dw4Qr-1565">
          <mxGeometry x="-340.84000000000003" y="560" width="100" height="100" as="geometry">
            <mxPoint x="365.4310144689531" y="977.3243774103121" as="sourcePoint"/>
            <mxPoint x="-240.84000000000003" y="560" as="targetPoint"/>
          </mxGeometry>
        </mxCell>
        <mxCell id="voT6KS4KQfKfTc6dw4Qr-1571" value="Economie" style="rounded=1;fillColor=#f5af58;strokeColor=none;strokeWidth=3;shadow=0;html=1;fontColor=#FFFFFF;" vertex="1" parent="1">
          <mxGeometry x="215.88" y="960" width="120" height="40" as="geometry"/>
        </mxCell>
        <mxCell id="voT6KS4KQfKfTc6dw4Qr-1572" value="" style="edgeStyle=none;endArrow=none;strokeWidth=3;strokeColor=#F5AF58;html=1;" edge="1" parent="1" target="voT6KS4KQfKfTc6dw4Qr-1571" source="voT6KS4KQfKfTc6dw4Qr-1565">
          <mxGeometry x="-177.59000000000003" y="696.34" width="100" height="100" as="geometry">
            <mxPoint x="528.6810144689531" y="1113.664377410312" as="sourcePoint"/>
            <mxPoint x="-77.59000000000003" y="696.34" as="targetPoint"/>
          </mxGeometry>
        </mxCell>
        <mxCell id="voT6KS4KQfKfTc6dw4Qr-1573" value="Politiek en wetten" style="rounded=1;fillColor=#f5af58;strokeColor=none;strokeWidth=3;shadow=0;html=1;fontColor=#FFFFFF;" vertex="1" parent="1">
          <mxGeometry x="198.87999999999997" y="1040" width="120" height="40" as="geometry"/>
        </mxCell>
        <mxCell id="voT6KS4KQfKfTc6dw4Qr-1574" value="" style="edgeStyle=none;endArrow=none;strokeWidth=3;strokeColor=#F5AF58;html=1;" edge="1" parent="1" target="voT6KS4KQfKfTc6dw4Qr-1573" source="voT6KS4KQfKfTc6dw4Qr-1565">
          <mxGeometry x="-370.84000000000003" y="760" width="100" height="100" as="geometry">
            <mxPoint x="335.4310144689531" y="1177.324377410312" as="sourcePoint"/>
            <mxPoint x="-270.84000000000003" y="760" as="targetPoint"/>
          </mxGeometry>
        </mxCell>
        <mxCell id="voT6KS4KQfKfTc6dw4Qr-1575" value="SWOT analyse" style="ellipse;whiteSpace=wrap;html=1;shadow=0;fontFamily=Helvetica;fontSize=20;fontColor=#FFFFFF;align=center;strokeWidth=3;fillColor=#1699D3;strokeColor=none;" vertex="1" parent="1">
          <mxGeometry x="400.00000000000006" y="1010" width="120" height="120" as="geometry"/>
        </mxCell>
        <mxCell id="voT6KS4KQfKfTc6dw4Qr-1578" value="&lt;b&gt;Sterke punten&lt;/b&gt;&lt;br&gt;&lt;table border=&quot;0&quot; cellpadding=&quot;0&quot; cellspacing=&quot;0&quot; width=&quot;65&quot; style=&quot;border-collapse: collapse ; width: 49pt&quot;&gt; &lt;colgroup&gt;&lt;col width=&quot;65&quot; style=&quot;width: 49pt&quot;&gt;&lt;/colgroup&gt; &lt;tbody&gt;&lt;tr style=&quot;height: 14.5pt&quot;&gt;  &lt;td height=&quot;19&quot; class=&quot;xl76&quot; width=&quot;65&quot; style=&quot;height: 14.5pt ; width: 49pt&quot;&gt;&lt;div style=&quot;text-align: left&quot;&gt;&lt;span&gt;traditioneel&lt;/span&gt;&lt;span&gt;vakmanschap bij het personeel;&lt;/span&gt;&lt;br&gt;&lt;/div&gt;&lt;/td&gt; &lt;/tr&gt; &lt;tr style=&quot;height: 14.5pt&quot;&gt;  &lt;td height=&quot;19&quot; class=&quot;xl76&quot; style=&quot;text-align: left ; height: 14.5pt&quot;&gt;&lt;span&gt;een hoog kwaliteitsimago;&lt;/span&gt;&lt;br&gt;&lt;/td&gt; &lt;/tr&gt; &lt;tr style=&quot;height: 14.5pt&quot;&gt;  &lt;td height=&quot;19&quot; class=&quot;xl76&quot; style=&quot;height: 14.5pt&quot;&gt;&lt;div style=&quot;text-align: left&quot;&gt;&lt;span&gt;een distributiekanaal dat ook&lt;/span&gt;&lt;span&gt;voor andere producten gebruikt&amp;nbsp;&lt;/span&gt;&lt;br&gt;&lt;span&gt;kan worden (verkoop van trendy horloges&lt;/span&gt;&lt;span&gt;bijvoorbeeld).&lt;/span&gt;&lt;br&gt;&lt;/div&gt;&lt;/td&gt; &lt;/tr&gt;&lt;/tbody&gt;&lt;/table&gt;" style="rounded=1;fillColor=#64BBE2;strokeColor=none;strokeWidth=3;shadow=0;html=1;fontColor=#FFFFFF;" vertex="1" parent="1">
          <mxGeometry x="335.88" y="850" width="376.5" height="100" as="geometry"/>
        </mxCell>
        <mxCell id="voT6KS4KQfKfTc6dw4Qr-1579" value="" style="edgeStyle=none;endArrow=none;strokeWidth=3;strokeColor=#64BBE2;html=1;" edge="1" parent="1" source="voT6KS4KQfKfTc6dw4Qr-1575" target="voT6KS4KQfKfTc6dw4Qr-1578">
          <mxGeometry x="-872.77" y="960" width="100" height="100" as="geometry">
            <mxPoint x="-872.77" y="1060" as="sourcePoint"/>
            <mxPoint x="-772.77" y="960" as="targetPoint"/>
          </mxGeometry>
        </mxCell>
        <mxCell id="voT6KS4KQfKfTc6dw4Qr-1580" value="&lt;b&gt;Zwakke punten&lt;/b&gt;&lt;br&gt;&lt;table border=&quot;0&quot; cellpadding=&quot;0&quot; cellspacing=&quot;0&quot; width=&quot;65&quot; style=&quot;border-collapse: collapse ; width: 49pt&quot;&gt; &lt;colgroup&gt;&lt;col width=&quot;65&quot; style=&quot;width: 49pt&quot;&gt;&lt;/colgroup&gt; &lt;tbody&gt;&lt;tr style=&quot;height: 14.5pt&quot;&gt;  &lt;td height=&quot;19&quot; class=&quot;xl76&quot; width=&quot;65&quot; style=&quot;height: 14.5pt ; width: 49pt&quot;&gt;&lt;div style=&quot;text-align: left&quot;&gt;een afnemend marktaandeel;&lt;br&gt;&lt;/div&gt;&lt;/td&gt; &lt;/tr&gt; &lt;tr style=&quot;height: 14.5pt&quot;&gt;  &lt;td height=&quot;19&quot; class=&quot;xl76&quot; style=&quot;text-align: left ; height: 14.5pt&quot;&gt;een kleinschalig bedrijf in een steeds grootschaligere industrie;&lt;br&gt;&lt;/td&gt; &lt;/tr&gt; &lt;tr style=&quot;height: 14.5pt&quot;&gt;  &lt;td height=&quot;19&quot; class=&quot;xl76&quot; style=&quot;height: 14.5pt&quot;&gt;&lt;div style=&quot;text-align: left&quot;&gt;geen moderne productiekennis en -middelen aanwezig&lt;br&gt;&lt;/div&gt;&lt;/td&gt; &lt;/tr&gt;&lt;/tbody&gt;&lt;/table&gt;" style="rounded=1;fillColor=#64BBE2;strokeColor=none;strokeWidth=3;shadow=0;html=1;fontColor=#FFFFFF;" vertex="1" parent="1">
          <mxGeometry x="730" y="880" width="360" height="90" as="geometry"/>
        </mxCell>
        <mxCell id="voT6KS4KQfKfTc6dw4Qr-1581" value="" style="edgeStyle=none;endArrow=none;strokeWidth=3;strokeColor=#64BBE2;html=1;" edge="1" parent="1" source="voT6KS4KQfKfTc6dw4Qr-1575" target="voT6KS4KQfKfTc6dw4Qr-1580">
          <mxGeometry x="-862.77" y="970" width="100" height="100" as="geometry">
            <mxPoint x="481.6332565345142" y="1044.0357059215821" as="sourcePoint"/>
            <mxPoint x="514.6221052631581" y="960" as="targetPoint"/>
          </mxGeometry>
        </mxCell>
        <mxCell id="voT6KS4KQfKfTc6dw4Qr-1582" value="&lt;b&gt;Bedreigingen&lt;/b&gt;&lt;br&gt;&lt;table border=&quot;0&quot; cellpadding=&quot;0&quot; cellspacing=&quot;0&quot; width=&quot;65&quot; style=&quot;border-collapse: collapse ; width: 49pt&quot;&gt; &lt;colgroup&gt;&lt;col width=&quot;65&quot; style=&quot;width: 49pt&quot;&gt;&lt;/colgroup&gt; &lt;tbody&gt;&lt;tr style=&quot;height: 14.5pt&quot;&gt;  &lt;td height=&quot;19&quot; class=&quot;xl76&quot; width=&quot;65&quot; style=&quot;height: 14.5pt ; width: 49pt&quot;&gt;&lt;div style=&quot;text-align: left&quot;&gt;globalisering van de markt voor juwelen;&lt;br&gt;&lt;/div&gt;&lt;/td&gt; &lt;/tr&gt; &lt;tr style=&quot;height: 14.5pt&quot;&gt;  &lt;td height=&quot;19&quot; class=&quot;xl76&quot; style=&quot;text-align: left ; height: 14.5pt&quot;&gt;concentratie: steeds grotere juweliersketens &lt;br&gt;die kleine juweliers en goudsmeden opkopen om te groeien&lt;/td&gt;&lt;/tr&gt;&lt;/tbody&gt;&lt;/table&gt;" style="rounded=1;fillColor=#64BBE2;strokeColor=none;strokeWidth=3;shadow=0;html=1;fontColor=#FFFFFF;" vertex="1" parent="1">
          <mxGeometry x="770" y="1000" width="340" height="80" as="geometry"/>
        </mxCell>
        <mxCell id="voT6KS4KQfKfTc6dw4Qr-1583" value="" style="edgeStyle=none;endArrow=none;strokeWidth=3;strokeColor=#64BBE2;html=1;" edge="1" parent="1" target="voT6KS4KQfKfTc6dw4Qr-1582" source="voT6KS4KQfKfTc6dw4Qr-1575">
          <mxGeometry x="-852.77" y="1120" width="100" height="100" as="geometry">
            <mxPoint x="520.1199999999999" y="1229.08" as="sourcePoint"/>
            <mxPoint x="524.6221052631581" y="1110" as="targetPoint"/>
          </mxGeometry>
        </mxCell>
        <mxCell id="voT6KS4KQfKfTc6dw4Qr-1584" value="&lt;b&gt;Kansen&lt;/b&gt;&lt;br&gt;&lt;table border=&quot;0&quot; cellpadding=&quot;0&quot; cellspacing=&quot;0&quot; width=&quot;65&quot; style=&quot;border-collapse: collapse ; width: 49pt&quot;&gt; &lt;colgroup&gt;&lt;col width=&quot;65&quot; style=&quot;width: 49pt&quot;&gt;&lt;/colgroup&gt; &lt;tbody&gt;&lt;tr style=&quot;height: 14.5pt&quot;&gt;  &lt;td height=&quot;19&quot; class=&quot;xl76&quot; width=&quot;65&quot; style=&quot;height: 14.5pt ; width: 49pt&quot;&gt;&lt;div style=&quot;text-align: left&quot;&gt;individualisering, de consument van vandaag wil zich graag onderscheiden;&lt;br&gt;&lt;/div&gt;&lt;/td&gt; &lt;/tr&gt; &lt;tr style=&quot;height: 14.5pt&quot;&gt;  &lt;td height=&quot;19&quot; class=&quot;xl76&quot; style=&quot;text-align: left ; height: 14.5pt&quot;&gt;de producten van de edelsmid zijn tijdloos en veel minder modegevoelig&lt;br&gt;&lt;/td&gt;&lt;/tr&gt;&lt;/tbody&gt;&lt;/table&gt;" style="rounded=1;fillColor=#64BBE2;strokeColor=none;strokeWidth=3;shadow=0;html=1;fontColor=#FFFFFF;" vertex="1" parent="1">
          <mxGeometry x="596.75" y="1100" width="429.99" height="70" as="geometry"/>
        </mxCell>
        <mxCell id="voT6KS4KQfKfTc6dw4Qr-1585" value="" style="edgeStyle=none;endArrow=none;strokeWidth=3;strokeColor=#64BBE2;html=1;" edge="1" parent="1" target="voT6KS4KQfKfTc6dw4Qr-1584" source="voT6KS4KQfKfTc6dw4Qr-1575">
          <mxGeometry x="-1092.76" y="1240" width="100" height="100" as="geometry">
            <mxPoint x="269.9976104219629" y="1208.7807396255698" as="sourcePoint"/>
            <mxPoint x="284.6321052631581" y="1230" as="targetPoint"/>
          </mxGeometry>
        </mxCell>
        <mxCell id="voT6KS4KQfKfTc6dw4Qr-1586" value="Interne analyse" style="ellipse;whiteSpace=wrap;html=1;shadow=0;fontFamily=Helvetica;fontSize=20;fontColor=#FFFFFF;align=center;strokeWidth=3;fillColor=#1699D3;strokeColor=none;" vertex="1" parent="1">
          <mxGeometry x="270" y="1230" width="120" height="120" as="geometry"/>
        </mxCell>
        <mxCell id="voT6KS4KQfKfTc6dw4Qr-1588" value="De analyse op de producten en / of &lt;br&gt;diensten geleverd door het bedrijf" style="rounded=1;fillColor=#64BBE2;strokeColor=none;strokeWidth=3;shadow=0;html=1;fontColor=#FFFFFF;" vertex="1" parent="1">
          <mxGeometry x="413.25" y="1180.0000000000002" width="221.75" height="60" as="geometry"/>
        </mxCell>
        <mxCell id="voT6KS4KQfKfTc6dw4Qr-1589" value="" style="edgeStyle=none;endArrow=none;strokeWidth=3;strokeColor=#64BBE2;html=1;entryX=0;entryY=0.5;entryDx=0;entryDy=0;" edge="1" parent="1" source="voT6KS4KQfKfTc6dw4Qr-1586" target="voT6KS4KQfKfTc6dw4Qr-1588">
          <mxGeometry x="-710.53" y="1380" width="100" height="100" as="geometry">
            <mxPoint x="-710.53" y="1480" as="sourcePoint"/>
            <mxPoint x="-610.53" y="1380" as="targetPoint"/>
          </mxGeometry>
        </mxCell>
        <mxCell id="voT6KS4KQfKfTc6dw4Qr-1590" style="endArrow=none;strokeWidth=6;strokeColor=#1699D3;html=1;entryX=0;entryY=1;entryDx=0;entryDy=0;" edge="1" parent="1" source="voT6KS4KQfKfTc6dw4Qr-1586" target="voT6KS4KQfKfTc6dw4Qr-1575">
          <mxGeometry relative="1" as="geometry">
            <mxPoint x="403.84000000000015" y="1123.1600000000003" as="targetPoint"/>
            <mxPoint x="142.13625000000002" y="1188.7092200000002" as="sourcePoint"/>
          </mxGeometry>
        </mxCell>
        <mxCell id="voT6KS4KQfKfTc6dw4Qr-1591" value="De analyse van het gehele assortiment &lt;br&gt;van het bedrijf (het product)" style="rounded=1;fillColor=#64BBE2;strokeColor=none;strokeWidth=3;shadow=0;html=1;fontColor=#FFFFFF;" vertex="1" parent="1">
          <mxGeometry x="729.25" y="1200" width="221.75" height="50" as="geometry"/>
        </mxCell>
        <mxCell id="voT6KS4KQfKfTc6dw4Qr-1592" value="" style="edgeStyle=none;endArrow=none;strokeWidth=3;strokeColor=#64BBE2;html=1;exitX=1;exitY=0.5;exitDx=0;exitDy=0;" edge="1" parent="1" target="voT6KS4KQfKfTc6dw4Qr-1591" source="voT6KS4KQfKfTc6dw4Qr-1586">
          <mxGeometry x="-435.75" y="1419.53" width="100" height="100" as="geometry">
            <mxPoint x="493.25" y="1280" as="sourcePoint"/>
            <mxPoint x="-335.75" y="1419.53" as="targetPoint"/>
          </mxGeometry>
        </mxCell>
        <mxCell id="voT6KS4KQfKfTc6dw4Qr-1593" value="De analyse van de producten, markten en technologieën &lt;br&gt;die worden gebruikt door een bedrijf" style="rounded=1;fillColor=#64BBE2;strokeColor=none;strokeWidth=3;shadow=0;html=1;fontColor=#FFFFFF;" vertex="1" parent="1">
          <mxGeometry x="776.5" y="1280" width="330" height="60" as="geometry"/>
        </mxCell>
        <mxCell id="voT6KS4KQfKfTc6dw4Qr-1594" value="" style="edgeStyle=none;endArrow=none;strokeWidth=3;strokeColor=#64BBE2;html=1;entryX=0;entryY=0.5;entryDx=0;entryDy=0;" edge="1" parent="1" target="voT6KS4KQfKfTc6dw4Qr-1593" source="voT6KS4KQfKfTc6dw4Qr-1586">
          <mxGeometry x="-555.75" y="1499.53" width="100" height="100" as="geometry">
            <mxPoint x="390" y="1370" as="sourcePoint"/>
            <mxPoint x="-455.75" y="1499.53" as="targetPoint"/>
          </mxGeometry>
        </mxCell>
        <mxCell id="voT6KS4KQfKfTc6dw4Qr-1595" value="Een vergelijking van de meting en benchmarks, &lt;br&gt;die meestal afkomstig zijn van buiten het bedrijf" style="rounded=1;fillColor=#64BBE2;strokeColor=none;strokeWidth=3;shadow=0;html=1;fontColor=#FFFFFF;gradientColor=none;glass=0;comic=0;" vertex="1" parent="1">
          <mxGeometry x="428.30999999999995" y="1330" width="291.69" height="60" as="geometry"/>
        </mxCell>
        <mxCell id="voT6KS4KQfKfTc6dw4Qr-1596" value="" style="edgeStyle=none;endArrow=none;strokeWidth=3;strokeColor=#64BBE2;html=1;entryX=0;entryY=0.5;entryDx=0;entryDy=0;" edge="1" parent="1" target="voT6KS4KQfKfTc6dw4Qr-1595" source="voT6KS4KQfKfTc6dw4Qr-1586">
          <mxGeometry x="-653.94" y="1569.53" width="100" height="100" as="geometry">
            <mxPoint x="411.697323112016" y="1363.6753952812428" as="sourcePoint"/>
            <mxPoint x="-553.94" y="1569.53" as="targetPoint"/>
          </mxGeometry>
        </mxCell>
        <mxCell id="voT6KS4KQfKfTc6dw4Qr-1597" value="Jaar-rapportage" style="ellipse;whiteSpace=wrap;html=1;shadow=0;fontFamily=Helvetica;fontSize=20;fontColor=#FFFFFF;align=center;strokeWidth=3;fillColor=#736ca8;strokeColor=none;" vertex="1" parent="1">
          <mxGeometry x="592.0000000000001" y="1400" width="120" height="120" as="geometry"/>
        </mxCell>
        <mxCell id="voT6KS4KQfKfTc6dw4Qr-1598" value="De balans" style="rounded=1;fillColor=#a29dc5;strokeColor=none;strokeWidth=3;shadow=0;html=1;fontColor=#FFFFFF;" vertex="1" parent="1">
          <mxGeometry x="777.63" y="1400" width="125" height="40" as="geometry"/>
        </mxCell>
        <mxCell id="voT6KS4KQfKfTc6dw4Qr-1599" value="" style="edgeStyle=none;endArrow=none;strokeWidth=3;strokeColor=#A29DC5;html=1;" edge="1" parent="1" source="voT6KS4KQfKfTc6dw4Qr-1597" target="voT6KS4KQfKfTc6dw4Qr-1598">
          <mxGeometry x="-1149.26" y="779.02" width="100" height="100" as="geometry">
            <mxPoint x="475.96000000000004" y="1387.999999999999" as="sourcePoint"/>
            <mxPoint x="-1049.26" y="779.02" as="targetPoint"/>
          </mxGeometry>
        </mxCell>
        <mxCell id="voT6KS4KQfKfTc6dw4Qr-1601" value="Resultatenrekening" style="rounded=1;fillColor=#a29dc5;strokeColor=none;strokeWidth=3;shadow=0;html=1;fontColor=#FFFFFF;" vertex="1" parent="1">
          <mxGeometry x="810" y="1480" width="125" height="40" as="geometry"/>
        </mxCell>
        <mxCell id="voT6KS4KQfKfTc6dw4Qr-1602" value="" style="edgeStyle=none;endArrow=none;strokeWidth=3;strokeColor=#A29DC5;html=1;" edge="1" parent="1" target="voT6KS4KQfKfTc6dw4Qr-1601" source="voT6KS4KQfKfTc6dw4Qr-1597">
          <mxGeometry x="-1118.65" y="856.52" width="100" height="100" as="geometry">
            <mxPoint x="740.0019497494371" y="1520.0024543446843" as="sourcePoint"/>
            <mxPoint x="-1018.65" y="856.52" as="targetPoint"/>
          </mxGeometry>
        </mxCell>
        <mxCell id="voT6KS4KQfKfTc6dw4Qr-1603" value="Het kasstroomoverzicht" style="rounded=1;fillColor=#a29dc5;strokeColor=none;strokeWidth=3;shadow=0;html=1;fontColor=#FFFFFF;" vertex="1" parent="1">
          <mxGeometry x="680" y="1550" width="161.06" height="40" as="geometry"/>
        </mxCell>
        <mxCell id="voT6KS4KQfKfTc6dw4Qr-1604" value="" style="edgeStyle=none;endArrow=none;strokeWidth=3;strokeColor=#A29DC5;html=1;exitX=1;exitY=1;exitDx=0;exitDy=0;" edge="1" parent="1" target="voT6KS4KQfKfTc6dw4Qr-1603" source="voT6KS4KQfKfTc6dw4Qr-1597">
          <mxGeometry x="-1149.71" y="935.9399999999999" width="100" height="100" as="geometry">
            <mxPoint x="680.0001985948761" y="1549.997946016993" as="sourcePoint"/>
            <mxPoint x="-1049.71" y="935.9399999999999" as="targetPoint"/>
          </mxGeometry>
        </mxCell>
        <mxCell id="voT6KS4KQfKfTc6dw4Qr-1605" value="Activa" style="ellipse;whiteSpace=wrap;html=1;shadow=0;fontFamily=Helvetica;fontSize=20;fontColor=#ffffff;align=center;strokeWidth=3;fillColor=#0050ef;strokeColor=#001DBC;" vertex="1" parent="1">
          <mxGeometry x="82.09" y="1370" width="99.79" height="100" as="geometry"/>
        </mxCell>
        <mxCell id="voT6KS4KQfKfTc6dw4Qr-1606" value="&lt;b&gt;Vaste activa&lt;/b&gt;&lt;br&gt;&lt;table border=&quot;0&quot; cellpadding=&quot;0&quot; cellspacing=&quot;0&quot; width=&quot;65&quot; style=&quot;border-collapse: collapse ; width: 49pt&quot;&gt; &lt;colgroup&gt;&lt;col width=&quot;65&quot; style=&quot;width: 49pt&quot;&gt;&lt;/colgroup&gt; &lt;tbody&gt;&lt;tr style=&quot;height: 14.5pt&quot;&gt;  &lt;td height=&quot;19&quot; class=&quot;xl76&quot; width=&quot;65&quot; style=&quot;height: 14.5pt ; width: 49pt&quot;&gt;&lt;div style=&quot;text-align: left&quot;&gt;&lt;span&gt;immateriële&lt;/span&gt;&lt;span&gt;vaste activa;&lt;/span&gt;&lt;/div&gt;&lt;/td&gt; &lt;/tr&gt; &lt;tr style=&quot;height: 14.5pt&quot;&gt;  &lt;td height=&quot;19&quot; class=&quot;xl76&quot; style=&quot;text-align: left ; height: 14.5pt&quot;&gt;materiële vaste activa;&lt;/td&gt; &lt;/tr&gt; &lt;tr style=&quot;height: 14.5pt&quot;&gt;  &lt;td height=&quot;19&quot; class=&quot;xl76&quot; style=&quot;text-align: left ; height: 14.5pt&quot;&gt;financiële vaste activa.&lt;/td&gt; &lt;/tr&gt;&lt;/tbody&gt;&lt;/table&gt;" style="rounded=1;fillColor=#0050ef;strokeColor=#001DBC;strokeWidth=3;shadow=0;html=1;fontColor=#ffffff;" vertex="1" parent="1">
          <mxGeometry x="250" y="1440" width="227.82" height="85" as="geometry"/>
        </mxCell>
        <mxCell id="voT6KS4KQfKfTc6dw4Qr-1607" value="" style="edgeStyle=none;endArrow=none;strokeWidth=3;strokeColor=#001DBC;html=1;fillColor=#0050ef;entryX=0;entryY=0.5;entryDx=0;entryDy=0;exitX=1;exitY=0.5;exitDx=0;exitDy=0;" edge="1" parent="1" source="voT6KS4KQfKfTc6dw4Qr-1605" target="voT6KS4KQfKfTc6dw4Qr-1606">
          <mxGeometry x="-1758.46" y="1464.22" width="100" height="100" as="geometry">
            <mxPoint x="-416.8838040881994" y="1728.0000329913494" as="sourcePoint"/>
            <mxPoint x="-522.0800000000002" y="1734.22" as="targetPoint"/>
          </mxGeometry>
        </mxCell>
        <mxCell id="voT6KS4KQfKfTc6dw4Qr-1609" value="Passiva" style="ellipse;whiteSpace=wrap;html=1;shadow=0;fontFamily=Helvetica;fontSize=20;fontColor=#ffffff;align=center;strokeWidth=3;fillColor=#0050ef;strokeColor=#001DBC;" vertex="1" parent="1">
          <mxGeometry x="-141.71" y="1360" width="94.92" height="93.5" as="geometry"/>
        </mxCell>
        <mxCell id="voT6KS4KQfKfTc6dw4Qr-1610" style="endArrow=none;strokeWidth=6;strokeColor=#001DBC;html=1;fillColor=#0050ef;" edge="1" parent="1" source="61DMd2a8S4PAV4XTqUyv-1561" target="voT6KS4KQfKfTc6dw4Qr-1609">
          <mxGeometry relative="1" as="geometry">
            <mxPoint x="10.875" y="1340" as="sourcePoint"/>
            <mxPoint x="123.71923999999944" y="1480.045" as="targetPoint"/>
          </mxGeometry>
        </mxCell>
        <mxCell id="voT6KS4KQfKfTc6dw4Qr-1611" style="endArrow=none;strokeWidth=6;strokeColor=#001DBC;html=1;fillColor=#0050ef;exitX=0;exitY=0.423;exitDx=0;exitDy=0;entryX=1;entryY=0.585;entryDx=0;entryDy=0;entryPerimeter=0;exitPerimeter=0;" edge="1" parent="1" source="voT6KS4KQfKfTc6dw4Qr-1605" target="voT6KS4KQfKfTc6dw4Qr-1609">
          <mxGeometry relative="1" as="geometry">
            <mxPoint x="20.875" y="1350" as="sourcePoint"/>
            <mxPoint x="133.71923999999944" y="1490.045" as="targetPoint"/>
          </mxGeometry>
        </mxCell>
        <mxCell id="voT6KS4KQfKfTc6dw4Qr-1612" value="&lt;b&gt;Vlottende activa&lt;/b&gt;&lt;br&gt;&lt;div style=&quot;text-align: left&quot;&gt;&lt;span&gt;Voorraden&lt;/span&gt;&lt;/div&gt;&lt;div style=&quot;text-align: left&quot;&gt;&lt;span&gt;Vorderingen&lt;/span&gt;&lt;/div&gt;&lt;div style=&quot;text-align: left&quot;&gt;&lt;span&gt;Liquide middelen&lt;/span&gt;&lt;/div&gt;" style="rounded=1;fillColor=#0050ef;strokeColor=#001DBC;strokeWidth=3;shadow=0;html=1;fontColor=#ffffff;" vertex="1" parent="1">
          <mxGeometry x="260.49" y="1560" width="167.82" height="70" as="geometry"/>
        </mxCell>
        <mxCell id="voT6KS4KQfKfTc6dw4Qr-1613" value="&lt;b&gt;Eigen vermogen&lt;/b&gt;&lt;br&gt;&lt;div style=&quot;text-align: left&quot;&gt;&lt;span&gt;storting door de eigenaren;&lt;/span&gt;&lt;/div&gt;&lt;div style=&quot;text-align: left&quot;&gt;&lt;span&gt;winstinhouding;&lt;/span&gt;&lt;/div&gt;&lt;div style=&quot;text-align: left&quot;&gt;&lt;span&gt;vorming van reserves.&lt;/span&gt;&lt;/div&gt;" style="rounded=1;fillColor=#0050ef;strokeColor=#001DBC;strokeWidth=3;shadow=0;html=1;fontColor=#ffffff;" vertex="1" parent="1">
          <mxGeometry x="14.929999999999986" y="1560" width="176.11" height="70" as="geometry"/>
        </mxCell>
        <mxCell id="voT6KS4KQfKfTc6dw4Qr-1614" value="&lt;b&gt;Vreemd vermogen&lt;/b&gt;&lt;br&gt;&lt;div style=&quot;text-align: left&quot;&gt;&lt;span&gt;een of meer leningen is aangegaan;&lt;/span&gt;&lt;/div&gt;&lt;div style=&quot;text-align: left&quot;&gt;&lt;span&gt;niet contant aan een leverancier betaalt voor geleverde&amp;nbsp;&lt;/span&gt;&lt;/div&gt;&lt;div style=&quot;text-align: left&quot;&gt;&lt;span&gt;goederen of diensten, zodat leverancierskrediet ontstaat;&lt;/span&gt;&lt;/div&gt;&lt;div style=&quot;text-align: left&quot;&gt;&lt;span&gt;betaling van bepaalde posten uitstelt, zoals het achteraf&amp;nbsp;&lt;/span&gt;&lt;/div&gt;&lt;div style=&quot;text-align: left&quot;&gt;&lt;span&gt;betalen van interest over geleend vermogen.&lt;br&gt;&lt;/span&gt;&lt;/div&gt;" style="rounded=1;fillColor=#0050ef;strokeColor=#001DBC;strokeWidth=3;shadow=0;html=1;fontColor=#ffffff;" vertex="1" parent="1">
          <mxGeometry x="-335.5" y="1530" width="330" height="105" as="geometry"/>
        </mxCell>
        <mxCell id="voT6KS4KQfKfTc6dw4Qr-1616" value="" style="edgeStyle=none;endArrow=none;strokeWidth=3;strokeColor=#001DBC;html=1;fillColor=#0050ef;entryX=0.5;entryY=0;entryDx=0;entryDy=0;" edge="1" parent="1" source="voT6KS4KQfKfTc6dw4Qr-1609" target="voT6KS4KQfKfTc6dw4Qr-1613">
          <mxGeometry x="-1738.46" y="1484.22" width="100" height="100" as="geometry">
            <mxPoint x="80.04559999999947" y="1490.0645" as="sourcePoint"/>
            <mxPoint x="150" y="1527.5" as="targetPoint"/>
          </mxGeometry>
        </mxCell>
        <mxCell id="voT6KS4KQfKfTc6dw4Qr-1617" value="" style="edgeStyle=none;endArrow=none;strokeWidth=3;strokeColor=#001DBC;html=1;fillColor=#0050ef;exitX=0.5;exitY=1;exitDx=0;exitDy=0;entryX=0.84;entryY=0.011;entryDx=0;entryDy=0;entryPerimeter=0;" edge="1" parent="1" source="voT6KS4KQfKfTc6dw4Qr-1609" target="voT6KS4KQfKfTc6dw4Qr-1614">
          <mxGeometry x="-1728.46" y="1494.22" width="100" height="100" as="geometry">
            <mxPoint x="-132.06517593262424" y="1473.340735349771" as="sourcePoint"/>
            <mxPoint x="-83.55499999999984" y="1550" as="targetPoint"/>
          </mxGeometry>
        </mxCell>
        <mxCell id="voT6KS4KQfKfTc6dw4Qr-1618" value="Balans" style="text;html=1;" vertex="1" parent="1">
          <mxGeometry x="-5.96" y="1390" width="60" height="20" as="geometry"/>
        </mxCell>
        <mxCell id="voT6KS4KQfKfTc6dw4Qr-1620" value="Indeling kengetallen" style="ellipse;whiteSpace=wrap;html=1;shadow=0;fontFamily=Helvetica;fontSize=20;fontColor=#FFFFFF;align=center;strokeWidth=3;fillColor=#F08705;strokeColor=none;gradientColor=none;" vertex="1" parent="1">
          <mxGeometry x="-622.42" y="1290" width="146.54" height="140" as="geometry"/>
        </mxCell>
        <mxCell id="voT6KS4KQfKfTc6dw4Qr-1621" value="&lt;b&gt;&lt;font style=&quot;font-size: 14px&quot;&gt;Liquiditeit&lt;/font&gt;&lt;/b&gt;&lt;br&gt;&lt;div style=&quot;text-align: left&quot;&gt;&lt;span&gt;current ratio&lt;/span&gt;&lt;/div&gt;&lt;div style=&quot;text-align: left&quot;&gt;&lt;span&gt;quick ratio&lt;/span&gt;&lt;/div&gt;&lt;div style=&quot;text-align: left&quot;&gt;&lt;span&gt;netto werkkapitaal&lt;/span&gt;&lt;/div&gt;&lt;div style=&quot;text-align: left&quot;&gt;&lt;span&gt;&lt;br&gt;&amp;nbsp; &amp;nbsp; &amp;nbsp; &amp;nbsp; &amp;nbsp; &amp;nbsp; &amp;nbsp; &amp;nbsp; &amp;nbsp; &amp;nbsp; &amp;nbsp; &amp;nbsp; vlottende activa&lt;br&gt;&lt;/span&gt;Curent ratio =&lt;span&gt;&amp;nbsp; -------------------&lt;/span&gt;&lt;/div&gt;&lt;div style=&quot;text-align: left&quot;&gt;&lt;span&gt;&amp;nbsp; &amp;nbsp; &amp;nbsp; &amp;nbsp; &amp;nbsp; &amp;nbsp; &amp;nbsp; &amp;nbsp; &amp;nbsp; &amp;nbsp; &amp;nbsp; &amp;nbsp; kort vreemd vermogen&lt;/span&gt;&lt;/div&gt;&lt;div style=&quot;text-align: left&quot;&gt;&lt;span&gt;&lt;br&gt;&lt;/span&gt;&lt;/div&gt;&lt;div style=&quot;text-align: left&quot;&gt;&lt;div&gt;&amp;nbsp; &amp;nbsp; &amp;nbsp; &amp;nbsp; &amp;nbsp; &amp;nbsp; &amp;nbsp; &amp;nbsp; &amp;nbsp; &amp;nbsp; &amp;nbsp; &amp;nbsp; vlottende activa - voorraden&lt;br&gt;Quick ratio =&amp;nbsp; -------------------&lt;/div&gt;&lt;div&gt;&amp;nbsp; &amp;nbsp; &amp;nbsp; &amp;nbsp; &amp;nbsp; &amp;nbsp; &amp;nbsp; &amp;nbsp; &amp;nbsp; &amp;nbsp; &amp;nbsp; &amp;nbsp; kort vreemd vermogen&lt;/div&gt;&lt;/div&gt;" style="rounded=1;fillColor=#f5af58;strokeColor=none;strokeWidth=3;shadow=0;html=1;fontColor=#FFFFFF;" vertex="1" parent="1">
          <mxGeometry x="-425" y="1340" width="265" height="183.75" as="geometry"/>
        </mxCell>
        <mxCell id="voT6KS4KQfKfTc6dw4Qr-1622" value="" style="edgeStyle=none;endArrow=none;strokeWidth=3;strokeColor=#F5AF58;html=1;entryX=0;entryY=0.5;entryDx=0;entryDy=0;" edge="1" parent="1" source="voT6KS4KQfKfTc6dw4Qr-1620" target="voT6KS4KQfKfTc6dw4Qr-1621">
          <mxGeometry x="-1150.52" y="890" width="100" height="100" as="geometry">
            <mxPoint x="-1150.52" y="990" as="sourcePoint"/>
            <mxPoint x="-1050.52" y="890" as="targetPoint"/>
          </mxGeometry>
        </mxCell>
        <mxCell id="voT6KS4KQfKfTc6dw4Qr-1623" value="Alternatieve strategieën" style="text;html=1;rotation=297;" vertex="1" parent="1">
          <mxGeometry x="302.04" y="1150" width="138.96" height="20" as="geometry"/>
        </mxCell>
        <mxCell id="voT6KS4KQfKfTc6dw4Qr-1624" value="&lt;b&gt;Omloopfrequentie&lt;br&gt;&lt;/b&gt;&lt;b&gt;&lt;br&gt;&amp;nbsp; &amp;nbsp; &amp;nbsp;&lt;/b&gt;&amp;nbsp; &amp;nbsp; &amp;nbsp; &amp;nbsp; &amp;nbsp; &amp;nbsp; &amp;nbsp; &amp;nbsp; &amp;nbsp; &amp;nbsp; &amp;nbsp; &amp;nbsp; &amp;nbsp; &amp;nbsp; 1&lt;br&gt;Omlooptijd in dagen =&amp;nbsp; &amp;nbsp; &amp;nbsp;-------------------------- x 365&lt;br&gt;&amp;nbsp; &amp;nbsp; &amp;nbsp; &amp;nbsp; &amp;nbsp; &amp;nbsp; &amp;nbsp; &amp;nbsp; &amp;nbsp; &amp;nbsp; &amp;nbsp; &amp;nbsp; &amp;nbsp; &amp;nbsp; &amp;nbsp; &amp;nbsp; omloopsnelheid&lt;br&gt;&lt;b&gt;&lt;br&gt;&amp;nbsp; &amp;nbsp; &amp;nbsp;&lt;/b&gt;&amp;nbsp; &amp;nbsp; &amp;nbsp; &amp;nbsp; &amp;nbsp; &amp;nbsp; &amp;nbsp; &amp;nbsp; &amp;nbsp; &amp;nbsp; &amp;nbsp; &amp;nbsp; &amp;nbsp; &amp;nbsp; &amp;nbsp; &amp;nbsp; &amp;nbsp; &amp;nbsp; &amp;nbsp; &amp;nbsp; &amp;nbsp;omzet&lt;br&gt;Omloopsnelheid van de totale activa =&amp;nbsp; &amp;nbsp; &amp;nbsp;-------------------------- =&lt;br&gt;&amp;nbsp; &amp;nbsp; &amp;nbsp; &amp;nbsp; &amp;nbsp; &amp;nbsp; &amp;nbsp; &amp;nbsp; &amp;nbsp; &amp;nbsp; &amp;nbsp; &amp;nbsp; &amp;nbsp; &amp;nbsp; &amp;nbsp; &amp;nbsp; &amp;nbsp; &amp;nbsp; &amp;nbsp; &amp;nbsp; &amp;nbsp; &amp;nbsp; &amp;nbsp; &amp;nbsp; &amp;nbsp; &amp;nbsp; &amp;nbsp; &amp;nbsp;totale activa&lt;b&gt;&lt;br&gt;&lt;/b&gt;" style="rounded=1;fillColor=#f5af58;strokeColor=none;strokeWidth=3;shadow=0;html=1;fontColor=#FFFFFF;" vertex="1" parent="1">
          <mxGeometry x="-849.59" y="1480" width="350" height="140" as="geometry"/>
        </mxCell>
        <mxCell id="voT6KS4KQfKfTc6dw4Qr-1626" value="&lt;b&gt;Solvabiliteit&lt;br&gt;&lt;br&gt;&amp;nbsp; &amp;nbsp; &amp;nbsp;&lt;/b&gt; &amp;nbsp; &amp;nbsp; &amp;nbsp; &amp;nbsp; &amp;nbsp; &amp;nbsp; &amp;nbsp; &amp;nbsp; &amp;nbsp; &amp;nbsp; &amp;nbsp;vreemd vermogen&lt;br&gt;Solvabiliteit =&amp;nbsp; &amp;nbsp; &amp;nbsp;--------------------------&lt;br&gt;&amp;nbsp; &amp;nbsp; &amp;nbsp; &amp;nbsp; &amp;nbsp; &amp;nbsp; &amp;nbsp; &amp;nbsp; &amp;nbsp; &amp;nbsp; &amp;nbsp; &amp;nbsp;totaal vermogen" style="rounded=1;fillColor=#f5af58;strokeColor=none;strokeWidth=3;shadow=0;html=1;fontColor=#FFFFFF;" vertex="1" parent="1">
          <mxGeometry x="-1088.25" y="1470" width="208.25" height="90" as="geometry"/>
        </mxCell>
        <mxCell id="voT6KS4KQfKfTc6dw4Qr-1627" value="" style="edgeStyle=none;endArrow=none;strokeWidth=3;strokeColor=#F5AF58;html=1;" edge="1" parent="1" target="voT6KS4KQfKfTc6dw4Qr-1626" source="voT6KS4KQfKfTc6dw4Qr-1620">
          <mxGeometry x="-1330.52" y="850.79" width="100" height="100" as="geometry">
            <mxPoint x="-475.3768170731628" y="1400.0019939024323" as="sourcePoint"/>
            <mxPoint x="-1230.52" y="850.79" as="targetPoint"/>
          </mxGeometry>
        </mxCell>
        <mxCell id="voT6KS4KQfKfTc6dw4Qr-1628" value="&lt;b&gt;Rentabiliteit&lt;/b&gt;&lt;br&gt;&lt;br&gt;&lt;div style=&quot;text-align: left&quot;&gt;&lt;b&gt;&amp;nbsp; &amp;nbsp; &amp;nbsp;&lt;/b&gt;&lt;span&gt;&amp;nbsp; &amp;nbsp; &amp;nbsp; &amp;nbsp; &amp;nbsp; &amp;nbsp; &amp;nbsp; &amp;nbsp; &amp;nbsp; &amp;nbsp; &amp;nbsp; &amp;nbsp; &amp;nbsp; &amp;nbsp; &amp;nbsp; &amp;nbsp; &amp;nbsp; &amp;nbsp; &amp;nbsp; &amp;nbsp; &amp;nbsp; &amp;nbsp; &amp;nbsp; winst voor interest en belasting (EBIT)&lt;/span&gt;&lt;br&gt;&lt;/div&gt;&lt;div style=&quot;text-align: left&quot;&gt;&lt;span&gt;Rentabiliteit totale vermogen =&amp;nbsp; --------------------------------------------------- x 100%&lt;/span&gt;&lt;/div&gt;&lt;div style=&quot;text-align: left&quot;&gt;&lt;span&gt;&amp;nbsp;(winstgevendheid)&amp;nbsp; &amp;nbsp; &amp;nbsp; &amp;nbsp; &amp;nbsp; &amp;nbsp; &amp;nbsp; &amp;nbsp; &amp;nbsp; &amp;nbsp; &amp;nbsp; &amp;nbsp; &amp;nbsp; &amp;nbsp; &amp;nbsp; &amp;nbsp; &amp;nbsp; &amp;nbsp; &amp;nbsp; &amp;nbsp; &amp;nbsp; &amp;nbsp; &amp;nbsp; &amp;nbsp; &amp;nbsp; gemiddeld totaal vermogen&lt;/span&gt;&lt;/div&gt;&lt;div style=&quot;text-align: left&quot;&gt;&lt;span&gt;&lt;br&gt;&lt;/span&gt;&lt;/div&gt;&lt;div style=&quot;text-align: left&quot;&gt;&lt;div&gt;&lt;b&gt;&amp;nbsp; &amp;nbsp; &amp;nbsp;&lt;/b&gt;&amp;nbsp; &amp;nbsp; &amp;nbsp; &amp;nbsp; &amp;nbsp; &amp;nbsp; &amp;nbsp; &amp;nbsp; &amp;nbsp; &amp;nbsp; &amp;nbsp; &amp;nbsp; &amp;nbsp; &amp;nbsp; &amp;nbsp; &amp;nbsp; &amp;nbsp; &amp;nbsp; &amp;nbsp; &amp;nbsp; &amp;nbsp; &amp;nbsp; &amp;nbsp;netto winst&lt;/div&gt;&lt;div&gt;&lt;span&gt;REV (beleid beoordelen)&amp;nbsp; =&amp;nbsp; &amp;nbsp; &amp;nbsp;------------------------------------&amp;nbsp; x 100%&lt;/span&gt;&lt;/div&gt;&lt;div&gt;&amp;nbsp; &amp;nbsp; &amp;nbsp; &amp;nbsp; &amp;nbsp; &amp;nbsp; &amp;nbsp; &amp;nbsp; &amp;nbsp; &amp;nbsp; &amp;nbsp; &amp;nbsp; &amp;nbsp; &amp;nbsp; &amp;nbsp; &amp;nbsp; &amp;nbsp; &amp;nbsp; &amp;nbsp; &amp;nbsp; &amp;nbsp; &amp;nbsp; &amp;nbsp; &amp;nbsp; &amp;nbsp; gemiddeld eigen vermogen&lt;/div&gt;&lt;div&gt;&lt;br&gt;&lt;/div&gt;&lt;div&gt;&lt;div&gt;&lt;b&gt;&amp;nbsp; &amp;nbsp;&lt;/b&gt;&amp;nbsp; &amp;nbsp; &amp;nbsp; &amp;nbsp; &amp;nbsp; &amp;nbsp; &amp;nbsp; &amp;nbsp; &amp;nbsp; &amp;nbsp; &amp;nbsp; &amp;nbsp; &amp;nbsp; &amp;nbsp; winst&amp;nbsp; &amp;nbsp; &amp;nbsp; &amp;nbsp; &amp;nbsp; &amp;nbsp; &amp;nbsp; omzet&lt;br&gt;&lt;/div&gt;&lt;div&gt;&amp;nbsp; &amp;nbsp;Rentabiliteit =&amp;nbsp; &amp;nbsp; &amp;nbsp;-----------&amp;nbsp; &amp;nbsp; x&amp;nbsp; &amp;nbsp; ---------------------------------------- x 100%&lt;/div&gt;&lt;div&gt;&amp;nbsp; &amp;nbsp; &amp;nbsp; &amp;nbsp; &amp;nbsp; &amp;nbsp; &amp;nbsp; &amp;nbsp; &amp;nbsp; &amp;nbsp; &amp;nbsp; &amp;nbsp; &amp;nbsp; &amp;nbsp; &amp;nbsp; &amp;nbsp;omzet&amp;nbsp; &amp;nbsp; &amp;nbsp; &amp;nbsp; &amp;nbsp; &amp;nbsp; &amp;nbsp;vermogen&lt;/div&gt;&lt;/div&gt;&lt;/div&gt;" style="rounded=1;fillColor=#f5af58;strokeColor=none;strokeWidth=3;shadow=0;html=1;fontColor=#FFFFFF;" vertex="1" parent="1">
          <mxGeometry x="-1169.12" y="1230" width="440" height="190" as="geometry"/>
        </mxCell>
        <mxCell id="voT6KS4KQfKfTc6dw4Qr-1629" value="" style="edgeStyle=none;endArrow=none;strokeWidth=3;strokeColor=#F5AF58;html=1;entryX=1;entryY=0.5;entryDx=0;entryDy=0;" edge="1" parent="1" target="voT6KS4KQfKfTc6dw4Qr-1628" source="voT6KS4KQfKfTc6dw4Qr-1620">
          <mxGeometry x="-1140.52" y="680.79" width="100" height="100" as="geometry">
            <mxPoint x="-285.3768170731628" y="1230.0019939024323" as="sourcePoint"/>
            <mxPoint x="-1040.52" y="680.79" as="targetPoint"/>
          </mxGeometry>
        </mxCell>
        <mxCell id="voT6KS4KQfKfTc6dw4Qr-1634" value="Veranderplan" style="rounded=1;fillColor=#f08e81;strokeColor=none;strokeWidth=3;shadow=0;html=1;fontColor=#FFFFFF;" vertex="1" parent="1">
          <mxGeometry x="-805.84" y="850" width="119.63" height="40" as="geometry"/>
        </mxCell>
        <mxCell id="voT6KS4KQfKfTc6dw4Qr-1635" value="" style="edgeStyle=none;endArrow=none;strokeWidth=3;strokeColor=#F08E81;html=1;" edge="1" parent="1" source="voT6KS4KQfKfTc6dw4Qr-1634" target="61DMd2a8S4PAV4XTqUyv-1562">
          <mxGeometry x="-573.1400000000001" y="100" width="100" height="100" as="geometry">
            <mxPoint x="56.56999999999999" y="1075" as="sourcePoint"/>
            <mxPoint x="-823.6800000000001" y="955" as="targetPoint"/>
          </mxGeometry>
        </mxCell>
        <mxCell id="voT6KS4KQfKfTc6dw4Qr-1636" value="Kwaliteitsplan" style="rounded=1;fillColor=#f08e81;strokeColor=none;strokeWidth=3;shadow=0;html=1;fontColor=#FFFFFF;" vertex="1" parent="1">
          <mxGeometry x="-769.25" y="900" width="120" height="40" as="geometry"/>
        </mxCell>
        <mxCell id="voT6KS4KQfKfTc6dw4Qr-1637" value="" style="edgeStyle=none;endArrow=none;strokeWidth=3;strokeColor=#F08E81;html=1;entryX=0.988;entryY=0.435;entryDx=0;entryDy=0;entryPerimeter=0;" edge="1" parent="1" source="voT6KS4KQfKfTc6dw4Qr-1636" target="61DMd2a8S4PAV4XTqUyv-1562">
          <mxGeometry x="-439.75" y="145" width="100" height="100" as="geometry">
            <mxPoint x="189.96" y="1120" as="sourcePoint"/>
            <mxPoint x="-690.29" y="1000" as="targetPoint"/>
          </mxGeometry>
        </mxCell>
        <mxCell id="voT6KS4KQfKfTc6dw4Qr-1638" value="Besturingsplan" style="rounded=1;fillColor=#f08e81;strokeColor=none;strokeWidth=3;shadow=0;html=1;fontColor=#FFFFFF;" vertex="1" parent="1">
          <mxGeometry x="-736.36" y="960" width="120" height="40" as="geometry"/>
        </mxCell>
        <mxCell id="voT6KS4KQfKfTc6dw4Qr-1639" value="" style="edgeStyle=none;endArrow=none;strokeWidth=3;strokeColor=#F08E81;html=1;entryX=1;entryY=0.5;entryDx=0;entryDy=0;" edge="1" parent="1" source="voT6KS4KQfKfTc6dw4Qr-1638" target="61DMd2a8S4PAV4XTqUyv-1562">
          <mxGeometry x="-406.86" y="205" width="100" height="100" as="geometry">
            <mxPoint x="222.85000000000002" y="1180" as="sourcePoint"/>
            <mxPoint x="-830.3900000000007" y="1022.1999999999998" as="targetPoint"/>
          </mxGeometry>
        </mxCell>
        <mxCell id="voT6KS4KQfKfTc6dw4Qr-1640" style="endArrow=none;strokeWidth=6;strokeColor=#1699D3;html=1;entryX=0;entryY=0.5;entryDx=0;entryDy=0;exitX=-0.001;exitY=0.451;exitDx=0;exitDy=0;exitPerimeter=0;" edge="1" parent="1" target="voT6KS4KQfKfTc6dw4Qr-1641" source="61DMd2a8S4PAV4XTqUyv-1561">
          <mxGeometry relative="1" as="geometry">
            <mxPoint x="378.47" y="1870" as="targetPoint"/>
            <mxPoint x="-872.9687499999995" y="1175.33" as="sourcePoint"/>
          </mxGeometry>
        </mxCell>
        <mxCell id="voT6KS4KQfKfTc6dw4Qr-1641" value="Resultaten-rekening" style="ellipse;whiteSpace=wrap;html=1;shadow=0;fontFamily=Helvetica;fontSize=20;fontColor=#FFFFFF;align=center;strokeWidth=3;fillColor=#1699D3;strokeColor=none;" vertex="1" parent="1">
          <mxGeometry x="-365.99" y="1150" width="120" height="120" as="geometry"/>
        </mxCell>
        <mxCell id="voT6KS4KQfKfTc6dw4Qr-1642" value="&amp;nbsp; &amp;nbsp; Netto-omzet&amp;nbsp;&lt;br&gt;&amp;nbsp; &amp;nbsp; Kosten van de omzet&lt;br&gt;&amp;nbsp; &amp;nbsp; -----------------------------------------------------&amp;nbsp; -&lt;br&gt;&amp;nbsp; &amp;nbsp; Bedrijfsresultaat&lt;br&gt;&amp;nbsp; &amp;nbsp; Saldo bijzondere baten / lasten&lt;br&gt;&amp;nbsp; &amp;nbsp; -----------------------------------------------------&amp;nbsp; + / -&lt;br&gt;&amp;nbsp; &amp;nbsp; Resultaat voor de interest en belasting&lt;br&gt;&amp;nbsp; &amp;nbsp; Interest&lt;br&gt;&amp;nbsp; &amp;nbsp; -----------------------------------------------------&amp;nbsp; + / -&lt;br&gt;&amp;nbsp; &amp;nbsp; Resultaat voor de belasting&lt;br&gt;&amp;nbsp; &amp;nbsp; Belasting&lt;br&gt;&amp;nbsp; &amp;nbsp; -----------------------------------------------------&amp;nbsp; -&lt;br&gt;&amp;nbsp; &amp;nbsp; Nettowinst" style="rounded=1;fillColor=#64BBE2;strokeColor=none;strokeWidth=3;shadow=0;html=1;fontColor=#FFFFFF;align=left;" vertex="1" parent="1">
          <mxGeometry x="-714.59" y="1090" width="260" height="190" as="geometry"/>
        </mxCell>
        <mxCell id="voT6KS4KQfKfTc6dw4Qr-1643" value="" style="edgeStyle=none;endArrow=none;strokeWidth=3;strokeColor=#64BBE2;html=1;entryX=1;entryY=0.5;entryDx=0;entryDy=0;" edge="1" parent="1" source="voT6KS4KQfKfTc6dw4Qr-1641" target="voT6KS4KQfKfTc6dw4Qr-1642">
          <mxGeometry x="-1733.74" y="1300" width="100" height="100" as="geometry">
            <mxPoint x="-1733.74" y="1400" as="sourcePoint"/>
            <mxPoint x="-1633.74" y="1300" as="targetPoint"/>
          </mxGeometry>
        </mxCell>
        <mxCell id="voT6KS4KQfKfTc6dw4Qr-1644" style="endArrow=none;strokeWidth=6;strokeColor=#6D1F00;html=1;fillColor=#a0522d;" edge="1" parent="1">
          <mxGeometry relative="1" as="geometry">
            <mxPoint x="1158.75" y="1650" as="sourcePoint"/>
            <mxPoint x="-1151.25" y="1650" as="targetPoint"/>
          </mxGeometry>
        </mxCell>
        <mxCell id="voT6KS4KQfKfTc6dw4Qr-1645" style="endArrow=none;strokeWidth=6;strokeColor=#f08705;html=1;exitX=0.077;exitY=0.769;exitDx=0;exitDy=0;exitPerimeter=0;" edge="1" parent="1" source="voT6KS4KQfKfTc6dw4Qr-1650">
          <mxGeometry relative="1" as="geometry">
            <mxPoint x="-562.635" y="2287.57" as="sourcePoint"/>
            <mxPoint x="-478.9985824666203" y="2155.1179446042634" as="targetPoint"/>
          </mxGeometry>
        </mxCell>
        <mxCell id="voT6KS4KQfKfTc6dw4Qr-1646" style="endArrow=none;strokeWidth=6;strokeColor=#736ca8;html=1;entryX=0.762;entryY=0.895;entryDx=0;entryDy=0;entryPerimeter=0;" edge="1" parent="1" target="voT6KS4KQfKfTc6dw4Qr-1650">
          <mxGeometry relative="1" as="geometry">
            <mxPoint x="591.9993110047724" y="2252.4003755094773" as="sourcePoint"/>
            <mxPoint x="-63.19359312880685" y="2080.9364068711934" as="targetPoint"/>
          </mxGeometry>
        </mxCell>
        <mxCell id="voT6KS4KQfKfTc6dw4Qr-1647" style="endArrow=none;strokeWidth=6;strokeColor=#1699D3;html=1;entryX=0;entryY=0.5;entryDx=0;entryDy=0;" edge="1" parent="1" source="voT6KS4KQfKfTc6dw4Qr-1650" target="voT6KS4KQfKfTc6dw4Qr-1671">
          <mxGeometry relative="1" as="geometry">
            <mxPoint x="740" y="2030" as="targetPoint"/>
            <mxPoint x="238.0513926283395" y="2149.7273203035543" as="sourcePoint"/>
          </mxGeometry>
        </mxCell>
        <mxCell id="voT6KS4KQfKfTc6dw4Qr-1648" style="endArrow=none;strokeWidth=6;strokeColor=#f08705;html=1;exitX=1;exitY=0;exitDx=0;exitDy=0;" edge="1" parent="1" source="voT6KS4KQfKfTc6dw4Qr-1650" target="voT6KS4KQfKfTc6dw4Qr-1654">
          <mxGeometry relative="1" as="geometry">
            <mxPoint x="366.5662881104247" y="1903.7521946652723" as="sourcePoint"/>
            <mxPoint x="55.035272557915775" y="1881.8348528631336" as="targetPoint"/>
          </mxGeometry>
        </mxCell>
        <mxCell id="voT6KS4KQfKfTc6dw4Qr-1649" value="" style="edgeStyle=none;endArrow=none;strokeWidth=6;strokeColor=#E85642;html=1;entryX=0;entryY=0;entryDx=0;entryDy=0;" edge="1" parent="1" target="voT6KS4KQfKfTc6dw4Qr-1650">
          <mxGeometry x="-919.1600000000001" y="987.57" width="100" height="100" as="geometry">
            <mxPoint x="-865.4789936586474" y="1791.7060015372977" as="sourcePoint"/>
            <mxPoint x="-4.648833537030626" y="1497.0718365397756" as="targetPoint"/>
          </mxGeometry>
        </mxCell>
        <mxCell id="voT6KS4KQfKfTc6dw4Qr-1650" value="Product &lt;br&gt;of &lt;br&gt;Serviceplanning" style="ellipse;whiteSpace=wrap;html=1;shadow=0;fontFamily=Helvetica;fontSize=30;fontColor=#2F5B7C;align=center;strokeColor=#2F5B7C;strokeWidth=6;fillColor=#FFFFFF;fontStyle=1;gradientColor=none;" vertex="1" parent="1">
          <mxGeometry x="-151.95" y="1947.57" width="301.95" height="190" as="geometry"/>
        </mxCell>
        <mxCell id="voT6KS4KQfKfTc6dw4Qr-1651" style="endArrow=none;strokeWidth=6;strokeColor=#736ca8;html=1;exitX=0.311;exitY=0.03;exitDx=0;exitDy=0;exitPerimeter=0;entryX=1;entryY=1;entryDx=0;entryDy=0;" edge="1" parent="1" source="voT6KS4KQfKfTc6dw4Qr-1650">
          <mxGeometry relative="1" as="geometry">
            <mxPoint x="-1051.9534999999996" y="1918.5506599999999" as="sourcePoint"/>
            <mxPoint x="-261.23359312884463" y="1779.9964068711556" as="targetPoint"/>
          </mxGeometry>
        </mxCell>
        <mxCell id="voT6KS4KQfKfTc6dw4Qr-1652" style="endArrow=none;strokeWidth=6;strokeColor=#001DBC;html=1;fillColor=#0050ef;" edge="1" parent="1" source="voT6KS4KQfKfTc6dw4Qr-1650">
          <mxGeometry relative="1" as="geometry">
            <mxPoint x="8.924999999999997" y="2147.57" as="sourcePoint"/>
            <mxPoint x="-73.53747204256815" y="2173.2441680771544" as="targetPoint"/>
          </mxGeometry>
        </mxCell>
        <mxCell id="voT6KS4KQfKfTc6dw4Qr-1653" style="endArrow=none;strokeWidth=6;strokeColor=#1699D3;html=1;entryX=0;entryY=0.5;entryDx=0;entryDy=0;exitX=-0.001;exitY=0.451;exitDx=0;exitDy=0;exitPerimeter=0;" edge="1" parent="1" source="voT6KS4KQfKfTc6dw4Qr-1650">
          <mxGeometry relative="1" as="geometry">
            <mxPoint x="-367.9399999999998" y="2017.5700000000002" as="targetPoint"/>
            <mxPoint x="-874.9187499999996" y="1982.9" as="sourcePoint"/>
          </mxGeometry>
        </mxCell>
        <mxCell id="voT6KS4KQfKfTc6dw4Qr-1654" value="ISO 20000&lt;br&gt;Hoofdprocessen" style="ellipse;whiteSpace=wrap;html=1;shadow=0;fontFamily=Helvetica;fontSize=20;fontColor=#FFFFFF;align=center;strokeWidth=3;fillColor=#F08705;strokeColor=none;gradientColor=none;" vertex="1" parent="1">
          <mxGeometry x="215.88" y="1750" width="168.63" height="170" as="geometry"/>
        </mxCell>
        <mxCell id="voT6KS4KQfKfTc6dw4Qr-1655" value="Service Delivery Processes" style="rounded=1;fillColor=#f5af58;strokeColor=none;strokeWidth=3;shadow=0;html=1;fontColor=#FFFFFF;" vertex="1" parent="1">
          <mxGeometry x="1.0399999999999956" y="1860" width="190" height="40" as="geometry"/>
        </mxCell>
        <mxCell id="voT6KS4KQfKfTc6dw4Qr-1656" value="" style="edgeStyle=none;endArrow=none;strokeWidth=3;strokeColor=#F5AF58;html=1;entryX=1;entryY=0.25;entryDx=0;entryDy=0;" edge="1" parent="1" source="voT6KS4KQfKfTc6dw4Qr-1654" target="voT6KS4KQfKfTc6dw4Qr-1655">
          <mxGeometry x="-318.75" y="1510" width="100" height="100" as="geometry">
            <mxPoint x="387.5210144689531" y="1927.324377410312" as="sourcePoint"/>
            <mxPoint x="-218.75000000000003" y="1510" as="targetPoint"/>
          </mxGeometry>
        </mxCell>
        <mxCell id="voT6KS4KQfKfTc6dw4Qr-1657" value="Relationship Processes" style="rounded=1;fillColor=#f5af58;strokeColor=none;strokeWidth=3;shadow=0;html=1;fontColor=#FFFFFF;" vertex="1" parent="1">
          <mxGeometry x="-0.46999999999998465" y="1750" width="190" height="40" as="geometry"/>
        </mxCell>
        <mxCell id="voT6KS4KQfKfTc6dw4Qr-1658" value="" style="edgeStyle=none;endArrow=none;strokeWidth=3;strokeColor=#F5AF58;html=1;" edge="1" parent="1" target="voT6KS4KQfKfTc6dw4Qr-1657" source="voT6KS4KQfKfTc6dw4Qr-1654">
          <mxGeometry x="-138.75" y="1560" width="100" height="100" as="geometry">
            <mxPoint x="403.4894988239075" y="1805.7745138569458" as="sourcePoint"/>
            <mxPoint x="-38.75000000000003" y="1560" as="targetPoint"/>
          </mxGeometry>
        </mxCell>
        <mxCell id="voT6KS4KQfKfTc6dw4Qr-1659" value="Resolution Processes" style="rounded=1;fillColor=#f5af58;strokeColor=none;strokeWidth=3;shadow=0;html=1;fontColor=#FFFFFF;" vertex="1" parent="1">
          <mxGeometry x="82.08999999999997" y="1670" width="190" height="40" as="geometry"/>
        </mxCell>
        <mxCell id="voT6KS4KQfKfTc6dw4Qr-1660" value="" style="edgeStyle=none;endArrow=none;strokeWidth=3;strokeColor=#F5AF58;html=1;" edge="1" parent="1" target="voT6KS4KQfKfTc6dw4Qr-1659" source="voT6KS4KQfKfTc6dw4Qr-1654">
          <mxGeometry x="-42.24000000000001" y="1660" width="100" height="100" as="geometry">
            <mxPoint x="499.9994988239075" y="1905.7745138569458" as="sourcePoint"/>
            <mxPoint x="57.75999999999996" y="1660" as="targetPoint"/>
          </mxGeometry>
        </mxCell>
        <mxCell id="voT6KS4KQfKfTc6dw4Qr-1661" value="Release Process" style="rounded=1;fillColor=#f5af58;strokeColor=none;strokeWidth=3;shadow=0;html=1;fontColor=#FFFFFF;" vertex="1" parent="1">
          <mxGeometry x="340" y="1670" width="190" height="40" as="geometry"/>
        </mxCell>
        <mxCell id="voT6KS4KQfKfTc6dw4Qr-1662" value="" style="edgeStyle=none;endArrow=none;strokeWidth=3;strokeColor=#F5AF58;html=1;" edge="1" parent="1" target="voT6KS4KQfKfTc6dw4Qr-1661" source="voT6KS4KQfKfTc6dw4Qr-1654">
          <mxGeometry x="-18.75" y="1790" width="100" height="100" as="geometry">
            <mxPoint x="523.4894988239075" y="2035.7745138569458" as="sourcePoint"/>
            <mxPoint x="81.24999999999997" y="1790" as="targetPoint"/>
          </mxGeometry>
        </mxCell>
        <mxCell id="voT6KS4KQfKfTc6dw4Qr-1663" value="Control Processes" style="rounded=1;fillColor=#f5af58;strokeColor=none;strokeWidth=3;shadow=0;html=1;fontColor=#FFFFFF;" vertex="1" parent="1">
          <mxGeometry x="480" y="1730" width="190" height="40" as="geometry"/>
        </mxCell>
        <mxCell id="voT6KS4KQfKfTc6dw4Qr-1665" value="Requirements for a management system" style="rounded=1;fillColor=#f5af58;strokeColor=none;strokeWidth=3;shadow=0;html=1;fontColor=#FFFFFF;" vertex="1" parent="1">
          <mxGeometry x="463.94" y="1820" width="266.06" height="40" as="geometry"/>
        </mxCell>
        <mxCell id="voT6KS4KQfKfTc6dw4Qr-1666" value="" style="edgeStyle=none;endArrow=none;strokeWidth=3;strokeColor=#F5AF58;html=1;" edge="1" parent="1" target="voT6KS4KQfKfTc6dw4Qr-1665" source="voT6KS4KQfKfTc6dw4Qr-1654">
          <mxGeometry x="16.25" y="1930" width="100" height="100" as="geometry">
            <mxPoint x="345.05808999999954" y="1919.9900000000002" as="sourcePoint"/>
            <mxPoint x="116.24999999999997" y="1930" as="targetPoint"/>
          </mxGeometry>
        </mxCell>
        <mxCell id="voT6KS4KQfKfTc6dw4Qr-1667" value="Planning and implementing new or change services" style="rounded=1;fillColor=#f5af58;strokeColor=none;strokeWidth=3;shadow=0;html=1;fontColor=#FFFFFF;" vertex="1" parent="1">
          <mxGeometry x="413.94" y="1907.57" width="306.06" height="40" as="geometry"/>
        </mxCell>
        <mxCell id="voT6KS4KQfKfTc6dw4Qr-1669" value="Planning and implementing service management" style="rounded=1;fillColor=#f5af58;strokeColor=none;strokeWidth=3;shadow=0;html=1;fontColor=#FFFFFF;" vertex="1" parent="1">
          <mxGeometry x="315.88" y="1980" width="280" height="40" as="geometry"/>
        </mxCell>
        <mxCell id="voT6KS4KQfKfTc6dw4Qr-1670" value="" style="edgeStyle=none;endArrow=none;strokeWidth=3;strokeColor=#F5AF58;html=1;" edge="1" parent="1" target="voT6KS4KQfKfTc6dw4Qr-1669" source="voT6KS4KQfKfTc6dw4Qr-1654">
          <mxGeometry x="135.13" y="2100" width="100" height="100" as="geometry">
            <mxPoint x="463.93808999999953" y="2089.9900000000002" as="sourcePoint"/>
            <mxPoint x="235.12999999999997" y="2100" as="targetPoint"/>
          </mxGeometry>
        </mxCell>
        <mxCell id="voT6KS4KQfKfTc6dw4Qr-1671" value="ITIL" style="ellipse;whiteSpace=wrap;html=1;shadow=0;fontFamily=Helvetica;fontSize=20;fontColor=#FFFFFF;align=center;strokeWidth=3;fillColor=#1699D3;strokeColor=none;" vertex="1" parent="1">
          <mxGeometry x="601" y="2000" width="120" height="120" as="geometry"/>
        </mxCell>
        <mxCell id="voT6KS4KQfKfTc6dw4Qr-1672" value="Functioneel beheer" style="rounded=1;fillColor=#64BBE2;strokeColor=none;strokeWidth=3;shadow=0;html=1;fontColor=#FFFFFF;" vertex="1" parent="1">
          <mxGeometry x="749.69" y="1920" width="180.88" height="40" as="geometry"/>
        </mxCell>
        <mxCell id="voT6KS4KQfKfTc6dw4Qr-1673" value="" style="edgeStyle=none;endArrow=none;strokeWidth=3;strokeColor=#64BBE2;html=1;entryX=0.25;entryY=1;entryDx=0;entryDy=0;" edge="1" parent="1" target="voT6KS4KQfKfTc6dw4Qr-1672" source="voT6KS4KQfKfTc6dw4Qr-1671">
          <mxGeometry x="-710.53" y="2320" width="100" height="100" as="geometry">
            <mxPoint x="373.03676285150414" y="2188.1928589442527" as="sourcePoint"/>
            <mxPoint x="-610.53" y="2320" as="targetPoint"/>
          </mxGeometry>
        </mxCell>
        <mxCell id="voT6KS4KQfKfTc6dw4Qr-1678" value="Applicatiebeheer" style="rounded=1;fillColor=#64BBE2;strokeColor=none;strokeWidth=3;shadow=0;html=1;fontColor=#FFFFFF;" vertex="1" parent="1">
          <mxGeometry x="799.9999999999999" y="2000" width="180.88" height="40" as="geometry"/>
        </mxCell>
        <mxCell id="voT6KS4KQfKfTc6dw4Qr-1679" value="" style="edgeStyle=none;endArrow=none;strokeWidth=3;strokeColor=#64BBE2;html=1;entryX=0;entryY=0.5;entryDx=0;entryDy=0;" edge="1" parent="1" target="voT6KS4KQfKfTc6dw4Qr-1678" source="voT6KS4KQfKfTc6dw4Qr-1671">
          <mxGeometry x="-671.4100000000001" y="2450" width="100" height="100" as="geometry">
            <mxPoint x="862.56" y="2070" as="sourcePoint"/>
            <mxPoint x="-571.4100000000001" y="2450" as="targetPoint"/>
          </mxGeometry>
        </mxCell>
        <mxCell id="voT6KS4KQfKfTc6dw4Qr-1680" value="Technisch beheer" style="rounded=1;fillColor=#64BBE2;strokeColor=none;strokeWidth=3;shadow=0;html=1;fontColor=#FFFFFF;" vertex="1" parent="1">
          <mxGeometry x="789.9999999999999" y="2090" width="180.88" height="40" as="geometry"/>
        </mxCell>
        <mxCell id="voT6KS4KQfKfTc6dw4Qr-1681" value="" style="edgeStyle=none;endArrow=none;strokeWidth=3;strokeColor=#64BBE2;html=1;entryX=0;entryY=0.5;entryDx=0;entryDy=0;exitX=0.922;exitY=0.77;exitDx=0;exitDy=0;exitPerimeter=0;" edge="1" parent="1" target="voT6KS4KQfKfTc6dw4Qr-1680" source="voT6KS4KQfKfTc6dw4Qr-1671">
          <mxGeometry x="-675.5100000000001" y="2530" width="100" height="100" as="geometry">
            <mxPoint x="848.9992398300459" y="2089.642401266899" as="sourcePoint"/>
            <mxPoint x="-575.5100000000001" y="2530" as="targetPoint"/>
          </mxGeometry>
        </mxCell>
      </root>
    </mxGraphModel>
  </diagram>
</mxfile>
